<svg xmlns="http://www.w3.org/2000/svg"  viewBox="0 0 100 100" width="100px" height="100px"><path fill="#78ccd3" d="M84.375,33.408L66,16L50,31L34,16L15.625,33.408C15.226,33.786,15,34.311,15,34.86v16.311	c0,0.53,0.211,1.039,0.586,1.414L50,87l34.414-34.414C84.789,52.211,85,51.702,85,51.172V34.86	C85,34.311,84.774,33.786,84.375,33.408z M54.27,34.291l8.272-7.61c1.945-1.789,4.946-1.756,6.851,0.075l8.89,8.548	c0.398,0.383,0.411,1.015,0.028,1.413L67.71,47.76c-0.388,0.404-1.032,0.411-1.428,0.015L54.24,35.734	C53.838,35.332,53.852,34.676,54.27,34.291z M26.243,31.257l7.056-7.056c0.388-0.388,1.017-0.391,1.408-0.006L58.77,47.843	c2.344,2.303,2.399,6.064,0.123,8.434l-7.186,7.486c-0.388,0.404-1.032,0.411-1.428,0.015L26.243,39.743	C23.899,37.399,23.899,33.6,26.243,31.257z M44.815,70.185l-1.608,1.608c-0.391,0.39-1.024,0.39-1.414,0L21.086,51.086	c-0.375-0.375-0.586-0.884-0.586-1.414v-3.779c0-1.252,1.514-1.879,2.399-0.994l21.916,21.916	C45.746,67.746,45.746,69.254,44.815,70.185z M79.5,49.672c0,0.53-0.211,1.039-0.586,1.414L50.707,79.293	c-0.391,0.39-1.024,0.39-1.414,0l-2.086-2.086c-0.391-0.39-0.391-1.024,0-1.414l31.096-31.096c0.442-0.442,1.197-0.129,1.197,0.496	V49.672z"/><path fill="#1f212b" d="M50,88c-0.256,0-0.512-0.098-0.707-0.293L14.879,53.293C14.312,52.727,14,51.973,14,51.172V34.86 c0-0.82,0.341-1.614,0.937-2.178l0,0l18.375-17.408c0.384-0.364,0.986-0.366,1.372-0.004L50,29.629l15.316-14.358 c0.387-0.362,0.989-0.359,1.372,0.004l18.375,17.408C85.659,33.246,86,34.04,86,34.86v16.312c0,0.801-0.312,1.555-0.879,2.121 L50.707,87.707C50.512,87.902,50.256,88,50,88z M15.625,33.408l0.688,0.726C16.114,34.322,16,34.587,16,34.86v16.312 c0,0.263,0.107,0.521,0.293,0.707L50,85.586l33.707-33.707C83.893,51.692,84,51.435,84,51.172V34.86 c0-0.273-0.114-0.538-0.312-0.727l-17.691-16.76L50.684,31.729c-0.385,0.361-0.983,0.361-1.368,0L34.003,17.374l-17.691,16.76 L15.625,33.408z"/><path fill="#1f212b" d="M50.985,64.571c-0.401,0-0.777-0.155-1.061-0.439L25.889,40.096 c-1.228-1.228-1.904-2.859-1.904-4.596s0.676-3.368,1.904-4.596l7.056-7.057c0.579-0.582,1.527-0.585,2.112-0.009l0,0 l24.063,23.648c2.526,2.482,2.586,6.581,0.133,9.138l-7.186,7.485c-0.282,0.293-0.661,0.457-1.068,0.461 C50.995,64.571,50.99,64.571,50.985,64.571z M34.005,24.409c-0.128,0-0.256,0.048-0.353,0.146l-7.057,7.057 c-1.039,1.039-1.611,2.42-1.611,3.889s0.572,2.85,1.611,3.889l24.036,24.036c0.096,0.097,0.224,0.117,0.358,0.146 c0.136-0.001,0.262-0.056,0.356-0.154l7.186-7.485c2.076-2.162,2.026-5.631-0.112-7.731L34.356,24.552 C34.259,24.456,34.132,24.409,34.005,24.409z"/><path fill="#1f212b" d="M66.988,48.568c-0.4,0-0.776-0.155-1.06-0.439L53.887,36.088c-0.292-0.292-0.448-0.68-0.439-1.093 c0.009-0.412,0.181-0.793,0.484-1.072l8.272-7.61c2.135-1.964,5.445-1.926,7.536,0.084l8.89,8.548 c0.289,0.276,0.452,0.65,0.46,1.051s-0.14,0.78-0.417,1.068L68.071,48.107c-0.281,0.292-0.66,0.456-1.066,0.461 C67,48.568,66.994,48.568,66.988,48.568z M65.927,25.863c-1.093,0-2.186,0.394-3.046,1.186l-8.272,7.61 c-0.101,0.093-0.158,0.22-0.161,0.357s0.049,0.267,0.146,0.364l12.041,12.041c0.097,0.096,0.225,0.173,0.359,0.146 c0.135-0.002,0.261-0.057,0.355-0.154L77.95,36.371c0.093-0.096,0.142-0.223,0.139-0.356c-0.002-0.133-0.057-0.257-0.153-0.35 l-8.89-8.548l0,0C68.178,26.282,67.053,25.863,65.927,25.863z"/><path fill="#1f212b" d="M42.5,72.586c-0.4,0-0.777-0.156-1.061-0.439L20.732,51.439C20.26,50.967,20,50.34,20,49.672 v-3.779c0-0.785,0.451-1.46,1.176-1.76c0.725-0.3,1.521-0.142,2.076,0.413l21.917,21.916c1.124,1.124,1.124,2.952,0,4.076 l-1.608,1.608C43.277,72.43,42.9,72.586,42.5,72.586z M21.916,44.983c-0.118,0-0.238,0.024-0.357,0.073 C21.209,45.201,21,45.514,21,45.893v3.779c0,0.395,0.16,0.781,0.439,1.061l20.707,20.707c0.195,0.195,0.512,0.195,0.707,0 l1.608-1.608c0.733-0.734,0.733-1.928,0-2.662L22.545,45.253C22.368,45.075,22.146,44.983,21.916,44.983z"/><path fill="#1f212b" d="M50,80.085c-0.384,0-0.768-0.146-1.061-0.438l-2.086-2.086c-0.585-0.585-0.585-1.536,0-2.121 L77.95,44.343c0.345-0.346,0.858-0.449,1.309-0.26C79.709,44.27,80,44.705,80,45.192v4.479c0,0.668-0.26,1.295-0.732,1.768 L51.061,79.646C50.768,79.938,50.384,80.085,50,80.085z M78.794,44.989c-0.042,0-0.091,0.015-0.137,0.061L47.561,76.146 c-0.195,0.195-0.195,0.512,0,0.707l2.086,2.086c0.195,0.195,0.512,0.195,0.707,0l28.207-28.207C78.84,50.453,79,50.066,79,49.672 v-4.479c0-0.117-0.078-0.167-0.124-0.186C78.855,44.998,78.827,44.989,78.794,44.989z"/><path fill="#1f212b" d="M85.5,58c-0.128,0-0.256-0.049-0.354-0.146c-0.195-0.195-0.195-0.512,0-0.707l1-1 c0.195-0.195,0.512-0.195,0.707,0s0.195,0.512,0,0.707l-1,1C85.756,57.951,85.628,58,85.5,58z"/><path fill="#1f212b" d="M80.625,62.875c-0.128,0-0.256-0.049-0.354-0.146c-0.195-0.195-0.195-0.512,0-0.707l2.875-2.875 c0.195-0.195,0.512-0.195,0.707,0s0.195,0.512,0,0.707l-2.875,2.875C80.881,62.826,80.753,62.875,80.625,62.875z"/><path fill="#1f212b" d="M52.5,91c-0.128,0-0.256-0.049-0.354-0.146c-0.195-0.195-0.195-0.512,0-0.707l25-25 c0.195-0.195,0.512-0.195,0.707,0s0.195,0.512,0,0.707l-25,25C52.756,90.951,52.628,91,52.5,91z"/></svg>