<?xml version="1.0" encoding="UTF-8" standalone="no"?>
<!-- Created with Inkscape (http://www.inkscape.org/) -->
<svg
   xmlns:svg="http://www.w3.org/2000/svg"
   xmlns="http://www.w3.org/2000/svg"
   version="1.0"
   width="158.03149"
   height="158.03149"
   id="svg2">
  <defs
     id="defs4" />
  <g
     transform="translate(1218.442,208.93703)"
     id="layer1">
    <g
       transform="translate(-18.316043,-6.6362678)"
       id="g4302">
      <rect
         width="120.41093"
         height="120.41093"
         rx="10.629922"
         ry="10.629921"
         x="-1181.3157"
         y="-183.49048"
         id="rect3267"
         style="fill:#33ff00;fill-opacity:0.7;stroke:#33ff00;stroke-width:2.1875;stroke-linecap:butt;stroke-linejoin:miter;stroke-miterlimit:4;stroke-dasharray:none;stroke-opacity:1" />
      <rect
         width="77.257874"
         height="77.257874"
         rx="6.8203545"
         ry="6.820354"
         x="-918.54913"
         y="666.94006"
         transform="matrix(0.7071068,0.7071068,-0.7071068,0.7071068,0,0)"
         id="rect3269"
         style="fill:#33ff00;fill-opacity:1;stroke:#000000;stroke-width:1.25;stroke-linecap:butt;stroke-linejoin:miter;stroke-miterlimit:4;stroke-dasharray:none;stroke-opacity:1" />
      <path
         d="M -1135.0036,-161.08127 L -1133.034,-161.08127 L -1133.034,-155.79805 C -1133.034,-154.95965 -1133.0096,-154.41624 -1132.9608,-154.16783 C -1132.8765,-153.76859 -1132.6758,-153.4481 -1132.3586,-153.20634 C -1132.0415,-152.96458 -1131.6079,-152.8437 -1131.0578,-152.8437 C -1130.4989,-152.8437 -1130.0775,-152.95792 -1129.7935,-153.18638 C -1129.5097,-153.41483 -1129.3389,-153.6954 -1129.2812,-154.0281 C -1129.2235,-154.36079 -1129.1947,-154.91307 -1129.1947,-155.68493 L -1129.1947,-161.08127 L -1127.2251,-161.08127 L -1127.2251,-155.95774 C -1127.2251,-154.78664 -1127.2784,-153.95934 -1127.3848,-153.47582 C -1127.4913,-152.9923 -1127.6876,-152.58419 -1127.9737,-152.2515 C -1128.2598,-151.9188 -1128.6424,-151.65375 -1129.1215,-151.45635 C -1129.6006,-151.25895 -1130.2261,-151.16025 -1130.9979,-151.16025 C -1131.9295,-151.16025 -1132.6359,-151.26783 -1133.1172,-151.48297 C -1133.5985,-151.69811 -1133.9789,-151.97758 -1134.2583,-152.32137 C -1134.5378,-152.66515 -1134.7219,-153.02557 -1134.8106,-153.40263 C -1134.9393,-153.96156 -1135.0036,-154.78664 -1135.0036,-155.87789 L -1135.0036,-161.08127 z M -1125.6415,-154.50053 L -1123.7252,-154.68684 C -1123.6098,-154.04362 -1123.3758,-153.57119 -1123.0232,-153.26955 C -1122.6705,-152.9679 -1122.1948,-152.81708 -1121.5959,-152.81708 C -1120.9616,-152.81708 -1120.4836,-152.95127 -1120.162,-153.21965 C -1119.8404,-153.48802 -1119.6796,-153.80186 -1119.6796,-154.16118 C -1119.6796,-154.39184 -1119.7472,-154.58814 -1119.8825,-154.75005 C -1120.0178,-154.91196 -1120.254,-155.0528 -1120.5912,-155.17258 C -1120.8218,-155.25242 -1121.3475,-155.39437 -1122.1681,-155.59843 C -1123.2239,-155.86014 -1123.9647,-156.18175 -1124.3906,-156.56325 C -1124.9894,-157.09999 -1125.2888,-157.7543 -1125.2888,-158.52616 C -1125.2888,-159.02298 -1125.148,-159.48764 -1124.8663,-159.92016 C -1124.5846,-160.35265 -1124.1787,-160.68202 -1123.6486,-160.90827 C -1123.1185,-161.13449 -1122.4787,-161.24761 -1121.729,-161.24762 C -1120.5047,-161.24761 -1119.5831,-160.97923 -1118.9643,-160.44249 C -1118.3455,-159.90573 -1118.0205,-159.18933 -1117.9895,-158.29327 L -1119.959,-158.20677 C -1120.0433,-158.70803 -1120.2241,-159.06845 -1120.5013,-159.28803 C -1120.7786,-159.50761 -1121.1945,-159.6174 -1121.7489,-159.6174 C -1122.3212,-159.6174 -1122.7692,-159.49984 -1123.093,-159.26475 C -1123.3015,-159.11392 -1123.4058,-158.91208 -1123.4058,-158.65924 C -1123.4058,-158.42856 -1123.3082,-158.23116 -1123.113,-158.06704 C -1122.8646,-157.85854 -1122.2613,-157.64118 -1121.3031,-157.41495 C -1120.345,-157.18871 -1119.6363,-156.95472 -1119.1772,-156.71296 C -1118.7181,-156.4712 -1118.3588,-156.14072 -1118.0993,-155.72153 C -1117.8398,-155.30232 -1117.71,-154.78443 -1117.71,-154.16783 C -1117.71,-153.6089 -1117.8653,-153.08546 -1118.1758,-152.5975 C -1118.4863,-152.10955 -1118.9255,-151.74691 -1119.4933,-151.50959 C -1120.0611,-151.27226 -1120.7686,-151.1536 -1121.6159,-151.1536 C -1122.8491,-151.1536 -1123.7961,-151.43861 -1124.4571,-152.00863 C -1125.1181,-152.57865 -1125.5129,-153.40928 -1125.6415,-154.50053 L -1125.6415,-154.50053 z M -1116.0133,-151.3266 L -1116.0133,-161.08127 L -1114.0437,-161.08127 L -1114.0437,-156.74956 L -1110.0646,-161.08127 L -1107.4164,-161.08127 L -1111.0893,-157.28187 L -1107.2168,-151.3266 L -1109.7652,-151.3266 L -1112.4467,-155.90451 L -1114.0437,-154.27429 L -1114.0437,-151.3266 L -1116.0133,-151.3266 z"
         id="text3273"
         style="font-size:14.86609936px;font-style:normal;font-weight:normal;line-height:125%;fill:#000000;fill-opacity:1;stroke:none;stroke-width:1px;stroke-linecap:butt;stroke-linejoin:miter;stroke-opacity:1;font-family:Bitstream Vera Sans" />
      <path
         d="M -1124.1441,-146.34891 L -1125.0701,-146.51595 C -1124.966,-146.88876 -1124.7868,-147.16474 -1124.5327,-147.34388 C -1124.2785,-147.52302 -1123.9008,-147.6126 -1123.3997,-147.6126 C -1122.9446,-147.6126 -1122.6056,-147.55873 -1122.3829,-147.45101 C -1122.1602,-147.34327 -1122.0035,-147.2065 -1121.9127,-147.04067 C -1121.8219,-146.87484 -1121.7765,-146.57041 -1121.7765,-146.1274 L -1121.7874,-144.93633 C -1121.7874,-144.59741 -1121.7711,-144.34746 -1121.7384,-144.18647 C -1121.7057,-144.02548 -1121.6446,-143.85299 -1121.555,-143.66901 L -1122.5645,-143.66901 C -1122.5911,-143.73679 -1122.6238,-143.83726 -1122.6625,-143.97041 C -1122.6795,-144.03093 -1122.6916,-144.07087 -1122.6988,-144.09024 C -1122.8732,-143.92078 -1123.0596,-143.79368 -1123.2581,-143.70895 C -1123.4566,-143.62422 -1123.6684,-143.58186 -1123.8935,-143.58186 C -1124.2906,-143.58186 -1124.6035,-143.68959 -1124.8322,-143.90504 C -1125.061,-144.1205 -1125.1754,-144.39285 -1125.1754,-144.72209 C -1125.1754,-144.93996 -1125.1233,-145.13424 -1125.0192,-145.30491 C -1124.9152,-145.47558 -1124.7693,-145.60631 -1124.5817,-145.69709 C -1124.3941,-145.78787 -1124.1235,-145.86715 -1123.7701,-145.93494 C -1123.2932,-146.02451 -1122.9627,-146.10803 -1122.7787,-146.1855 L -1122.7787,-146.28718 C -1122.7787,-146.48326 -1122.8272,-146.62307 -1122.924,-146.70659 C -1123.0208,-146.79011 -1123.2036,-146.83187 -1123.4723,-146.83187 C -1123.6539,-146.83187 -1123.7955,-146.79616 -1123.8972,-146.72475 C -1123.9989,-146.65333 -1124.0812,-146.52805 -1124.1441,-146.34891 L -1124.1441,-146.34891 z M -1122.7787,-145.52097 C -1122.9095,-145.47739 -1123.1165,-145.42535 -1123.3997,-145.36483 C -1123.6829,-145.3043 -1123.8681,-145.24499 -1123.9553,-145.18689 C -1124.0884,-145.09248 -1124.155,-144.97264 -1124.155,-144.82739 C -1124.155,-144.68456 -1124.1017,-144.5611 -1123.9952,-144.457 C -1123.8887,-144.3529 -1123.7531,-144.30085 -1123.5885,-144.30086 C -1123.4045,-144.30085 -1123.229,-144.36138 -1123.062,-144.48242 C -1122.9385,-144.57441 -1122.8574,-144.68698 -1122.8187,-144.82013 C -1122.7921,-144.90728 -1122.7787,-145.07311 -1122.7787,-145.31762 L -1122.7787,-145.52097 z M -1120.8106,-143.66901 L -1120.8106,-148.99249 L -1119.7902,-148.99249 L -1119.7902,-147.07517 C -1119.4755,-147.43345 -1119.1027,-147.6126 -1118.6717,-147.6126 C -1118.2021,-147.6126 -1117.8135,-147.44253 -1117.5061,-147.1024 C -1117.1986,-146.76227 -1117.0449,-146.27386 -1117.0449,-145.63717 C -1117.0449,-144.9787 -1117.2017,-144.47153 -1117.5152,-144.11566 C -1117.8287,-143.75979 -1118.2094,-143.58186 -1118.6572,-143.58186 C -1118.8775,-143.58186 -1119.0948,-143.63693 -1119.309,-143.74708 C -1119.5233,-143.85723 -1119.7079,-144.02003 -1119.8628,-144.23549 L -1119.8628,-143.66901 L -1120.8106,-143.66901 z M -1119.7974,-145.68075 C -1119.7974,-145.2813 -1119.7345,-144.98596 -1119.6086,-144.79471 C -1119.4319,-144.52357 -1119.1971,-144.38801 -1118.9041,-144.38801 C -1118.679,-144.38801 -1118.4872,-144.48424 -1118.3286,-144.67669 C -1118.17,-144.86915 -1118.0907,-145.17237 -1118.0907,-145.58634 C -1118.0907,-146.02693 -1118.1706,-146.34467 -1118.3304,-146.53955 C -1118.4902,-146.73443 -1118.6947,-146.83187 -1118.9441,-146.83187 C -1119.1886,-146.83187 -1119.3919,-146.73685 -1119.5541,-146.54681 C -1119.7163,-146.35677 -1119.7974,-146.06808 -1119.7974,-145.68075 L -1119.7974,-145.68075 z"
         id="text3277"
         style="font-size:12px;font-style:normal;font-weight:normal;line-height:125%;fill:#000000;fill-opacity:1;stroke:none;stroke-width:1px;stroke-linecap:butt;stroke-linejoin:miter;stroke-opacity:1;font-family:Bitstream Vera Sans" />
      <path
         d="M -1129.8455,-104.25269 L -1136.6075,-104.25269 L -1136.6075,-129.7366 C -1139.0781,-127.42642 -1141.9898,-125.71787 -1145.3428,-124.61094 L -1145.3428,-130.74729 C -1143.5781,-131.3248 -1141.6609,-132.41972 -1139.5914,-134.03204 C -1137.5219,-135.64431 -1136.1021,-137.52532 -1135.3321,-139.67508 L -1129.8455,-139.67508 L -1129.8455,-104.25269 z M -1096.8776,-110.53343 L -1096.8776,-104.25269 L -1120.5808,-104.25269 C -1120.3241,-106.62701 -1119.554,-108.87701 -1118.2706,-111.00268 C -1116.9872,-113.12833 -1114.4524,-115.94784 -1110.6663,-119.46122 C -1107.6182,-122.30076 -1105.7493,-124.22589 -1105.0594,-125.23661 C -1104.1289,-126.6323 -1103.6637,-128.01198 -1103.6637,-129.37564 C -1103.6637,-130.88363 -1104.0688,-132.04271 -1104.8789,-132.8529 C -1105.6891,-133.66303 -1106.8081,-134.06811 -1108.2359,-134.06814 C -1109.6476,-134.06811 -1110.7706,-133.64298 -1111.6048,-132.79274 C -1112.4391,-131.94245 -1112.9204,-130.53069 -1113.0487,-128.55746 L -1119.7866,-129.23125 C -1119.3856,-132.95314 -1118.1262,-135.62426 -1116.0086,-137.2446 C -1113.8909,-138.86489 -1111.2439,-139.67505 -1108.0674,-139.67508 C -1104.5862,-139.67505 -1101.8509,-138.73655 -1099.8616,-136.85958 C -1097.8723,-134.98255 -1096.8776,-132.64833 -1096.8776,-129.85692 C -1096.8776,-128.26866 -1097.1624,-126.75663 -1097.7319,-125.32083 C -1098.3014,-123.88498 -1099.2038,-122.38098 -1100.4391,-120.80881 C -1101.2573,-119.76601 -1102.7332,-118.26602 -1104.8669,-116.30882 C -1107.0006,-114.35159 -1108.3522,-113.05213 -1108.9217,-112.41043 C -1109.4912,-111.76871 -1109.9525,-111.14304 -1110.3054,-110.53343 L -1096.8776,-110.53343 z"
         id="text3281"
         style="font-size:14.78499889px;font-style:normal;font-weight:normal;line-height:125%;fill:#000000;fill-opacity:1;stroke:none;stroke-width:1px;stroke-linecap:butt;stroke-linejoin:miter;stroke-opacity:1;font-family:Bitstream Vera Sans" />
      <path
         d="M -1141.9048,-96.165364 L -1141.3384,-96.165364 L -1141.3384,-96.455864 C -1141.3384,-96.780254 -1141.3039,-97.022344 -1141.2349,-97.182124 C -1141.1659,-97.341904 -1141.0388,-97.472024 -1140.8536,-97.572494 C -1140.6684,-97.672954 -1140.4342,-97.723184 -1140.1509,-97.723194 C -1139.8604,-97.723184 -1139.576,-97.679614 -1139.2976,-97.592464 L -1139.4355,-96.880724 C -1139.5977,-96.919454 -1139.7539,-96.938824 -1139.904,-96.938834 C -1140.0517,-96.938824 -1140.1576,-96.904324 -1140.2217,-96.835334 C -1140.2859,-96.766334 -1140.318,-96.633794 -1140.318,-96.437704 L -1140.318,-96.165364 L -1139.5554,-96.165364 L -1139.5554,-95.362844 L -1140.318,-95.362844 L -1140.318,-92.308904 L -1141.3384,-92.308904 L -1141.3384,-95.362844 L -1141.9048,-95.362844 L -1141.9048,-96.165364 z M -1137.9975,-92.308904 L -1139.0179,-92.308904 L -1139.0179,-96.165364 L -1138.0702,-96.165364 L -1138.0702,-95.617034 C -1137.908,-95.876064 -1137.7621,-96.046734 -1137.6326,-96.129044 C -1137.5031,-96.211354 -1137.356,-96.252504 -1137.1914,-96.252514 C -1136.959,-96.252504 -1136.7351,-96.188354 -1136.5196,-96.060054 L -1136.8355,-95.170384 C -1137.0074,-95.281734 -1137.1672,-95.337414 -1137.3149,-95.337424 C -1137.4577,-95.337414 -1137.5787,-95.298074 -1137.678,-95.219404 C -1137.7773,-95.140724 -1137.8553,-94.998494 -1137.9122,-94.792724 C -1137.9691,-94.586944 -1137.9976,-94.156034 -1137.9975,-93.499974 L -1137.9975,-92.308904 z M -1133.8506,-93.536284 L -1132.8338,-93.365614 C -1132.9646,-92.992804 -1133.1709,-92.708954 -1133.453,-92.514074 C -1133.735,-92.319194 -1134.0878,-92.221754 -1134.5115,-92.221754 C -1135.1821,-92.221754 -1135.6784,-92.440844 -1136.0003,-92.879024 C -1136.2545,-93.230044 -1136.3816,-93.673064 -1136.3816,-94.208074 C -1136.3816,-94.847184 -1136.2146,-95.347694 -1135.8805,-95.709614 C -1135.5464,-96.071534 -1135.124,-96.252494 -1134.6132,-96.252494 C -1134.0394,-96.252494 -1133.5867,-96.063064 -1133.2551,-95.684194 C -1132.9234,-95.305334 -1132.7648,-94.724924 -1132.7794,-93.942994 L -1135.3358,-93.942994 C -1135.3285,-93.640384 -1135.2462,-93.404954 -1135.0889,-93.236704 C -1134.9315,-93.068454 -1134.7354,-92.984324 -1134.5006,-92.984324 C -1134.3408,-92.984324 -1134.2065,-93.027904 -1134.0975,-93.115054 C -1133.9886,-93.202204 -1133.9063,-93.342614 -1133.8506,-93.536284 L -1133.8506,-93.536284 z M -1133.7925,-94.567574 C -1133.7998,-94.862914 -1133.876,-95.087454 -1134.0213,-95.241184 C -1134.1665,-95.394904 -1134.3432,-95.471764 -1134.5514,-95.471764 C -1134.7742,-95.471764 -1134.9581,-95.390664 -1135.1034,-95.228474 C -1135.2487,-95.066274 -1135.3201,-94.845974 -1135.3176,-94.567574 L -1133.7925,-94.567574 z M -1131.9442,-96.688254 L -1131.9442,-97.632394 L -1130.9238,-97.632394 L -1130.9238,-96.688254 L -1131.9442,-96.688254 z M -1131.9442,-92.308904 L -1131.9442,-96.165344 L -1130.9238,-96.165344 L -1130.9238,-92.308904 L -1131.9442,-92.308904 z M -1129.976,-92.054714 L -1128.8104,-91.913094 C -1128.791,-91.777524 -1128.7462,-91.684324 -1128.676,-91.633484 C -1128.5792,-91.560864 -1128.4267,-91.524544 -1128.2185,-91.524544 C -1127.9522,-91.524544 -1127.7524,-91.564494 -1127.6193,-91.644374 C -1127.5297,-91.697634 -1127.4619,-91.783574 -1127.4159,-91.902204 C -1127.3845,-91.986934 -1127.3687,-92.143074 -1127.3687,-92.370634 L -1127.3687,-92.933494 C -1127.6738,-92.517104 -1128.0587,-92.308904 -1128.5235,-92.308904 C -1129.0416,-92.308904 -1129.4519,-92.527994 -1129.7545,-92.966174 C -1129.9917,-93.312354 -1130.1104,-93.743264 -1130.1104,-94.258914 C -1130.1104,-94.905284 -1129.9548,-95.399134 -1129.6437,-95.740484 C -1129.3327,-96.081824 -1128.9459,-96.252494 -1128.4835,-96.252494 C -1128.0066,-96.252494 -1127.6132,-96.043084 -1127.3034,-95.624284 L -1127.3034,-96.165344 L -1126.3483,-96.165344 L -1126.3483,-92.704714 C -1126.3483,-92.249594 -1126.3859,-91.909464 -1126.4609,-91.684324 C -1126.536,-91.459184 -1126.6413,-91.282464 -1126.7768,-91.154154 C -1126.9124,-91.025844 -1127.0934,-90.925384 -1127.3197,-90.852754 C -1127.5461,-90.780134 -1127.8323,-90.743814 -1128.1785,-90.743814 C -1128.8321,-90.743814 -1129.2957,-90.855784 -1129.5693,-91.079714 C -1129.8429,-91.303644 -1129.9796,-91.587484 -1129.9796,-91.931254 C -1129.9796,-91.965144 -1129.9784,-92.006294 -1129.976,-92.054714 L -1129.976,-92.054714 z M -1129.0645,-94.317014 C -1129.0645,-93.907884 -1128.9853,-93.608304 -1128.8267,-93.418264 C -1128.6681,-93.228224 -1128.4726,-93.133214 -1128.2402,-93.133214 C -1127.9909,-93.133214 -1127.7803,-93.230654 -1127.6084,-93.425534 C -1127.4365,-93.620404 -1127.3506,-93.909094 -1127.3506,-94.291594 C -1127.3506,-94.691034 -1127.4329,-94.987594 -1127.5975,-95.181264 C -1127.7621,-95.374934 -1127.9703,-95.471764 -1128.2221,-95.471764 C -1128.4666,-95.471764 -1128.6681,-95.376744 -1128.8267,-95.186714 C -1128.9853,-94.996674 -1129.0645,-94.706774 -1129.0645,-94.317014 L -1129.0645,-94.317014 z M -1123.102,-93.536284 L -1122.0852,-93.365614 C -1122.2159,-92.992804 -1122.4223,-92.708954 -1122.7043,-92.514074 C -1122.9864,-92.319194 -1123.3392,-92.221754 -1123.7629,-92.221754 C -1124.4334,-92.221754 -1124.9297,-92.440844 -1125.2517,-92.879024 C -1125.5059,-93.230044 -1125.633,-93.673064 -1125.633,-94.208074 C -1125.633,-94.847184 -1125.4659,-95.347694 -1125.1319,-95.709614 C -1124.7978,-96.071534 -1124.3753,-96.252494 -1123.8645,-96.252494 C -1123.2908,-96.252494 -1122.8381,-96.063064 -1122.5064,-95.684194 C -1122.1748,-95.305334 -1122.0162,-94.724924 -1122.0307,-93.942994 L -1124.5872,-93.942994 C -1124.5799,-93.640384 -1124.4976,-93.404954 -1124.3402,-93.236704 C -1124.1829,-93.068454 -1123.9868,-92.984324 -1123.752,-92.984324 C -1123.5922,-92.984324 -1123.4578,-93.027904 -1123.3489,-93.115054 C -1123.2399,-93.202204 -1123.1576,-93.342614 -1123.102,-93.536284 L -1123.102,-93.536284 z M -1123.0439,-94.567574 C -1123.0511,-94.862914 -1123.1274,-95.087454 -1123.2726,-95.241184 C -1123.4179,-95.394904 -1123.5946,-95.471764 -1123.8028,-95.471764 C -1124.0255,-95.471764 -1124.2095,-95.390664 -1124.3548,-95.228474 C -1124.5,-95.066274 -1124.5714,-94.845974 -1124.569,-94.567574 L -1123.0439,-94.567574 z M -1121.2899,-92.054714 L -1120.1243,-91.913094 C -1120.1049,-91.777524 -1120.0601,-91.684324 -1119.9899,-91.633484 C -1119.8931,-91.560864 -1119.7406,-91.524544 -1119.5324,-91.524544 C -1119.2661,-91.524544 -1119.0664,-91.564494 -1118.9332,-91.644374 C -1118.8437,-91.697634 -1118.7759,-91.783574 -1118.7299,-91.902204 C -1118.6984,-91.986934 -1118.6827,-92.143074 -1118.6827,-92.370634 L -1118.6827,-92.933494 C -1118.9877,-92.517104 -1119.3726,-92.308904 -1119.8374,-92.308904 C -1120.3555,-92.308904 -1120.7658,-92.527994 -1121.0684,-92.966174 C -1121.3057,-93.312354 -1121.4243,-93.743264 -1121.4243,-94.258914 C -1121.4243,-94.905284 -1121.2688,-95.399134 -1120.9577,-95.740484 C -1120.6466,-96.081824 -1120.2599,-96.252494 -1119.7975,-96.252494 C -1119.3206,-96.252494 -1118.9272,-96.043084 -1118.6173,-95.624284 L -1118.6173,-96.165344 L -1117.6623,-96.165344 L -1117.6623,-92.704714 C -1117.6623,-92.249594 -1117.6998,-91.909464 -1117.7748,-91.684324 C -1117.8499,-91.459184 -1117.9552,-91.282464 -1118.0908,-91.154154 C -1118.2263,-91.025844 -1118.4073,-90.925384 -1118.6336,-90.852754 C -1118.86,-90.780134 -1119.1463,-90.743814 -1119.4924,-90.743814 C -1120.1461,-90.743814 -1120.6097,-90.855784 -1120.8832,-91.079714 C -1121.1568,-91.303644 -1121.2936,-91.587484 -1121.2936,-91.931254 C -1121.2936,-91.965144 -1121.2924,-92.006294 -1121.2899,-92.054714 L -1121.2899,-92.054714 z M -1120.3785,-94.317014 C -1120.3785,-93.907884 -1120.2992,-93.608304 -1120.1406,-93.418264 C -1119.9821,-93.228224 -1119.7866,-93.133214 -1119.5542,-93.133214 C -1119.3048,-93.133214 -1119.0942,-93.230654 -1118.9223,-93.425534 C -1118.7505,-93.620404 -1118.6645,-93.909094 -1118.6645,-94.291594 C -1118.6645,-94.691034 -1118.7468,-94.987594 -1118.9114,-95.181264 C -1119.0761,-95.374934 -1119.2843,-95.471764 -1119.536,-95.471764 C -1119.7805,-95.471764 -1119.9821,-95.376744 -1120.1406,-95.186714 C -1120.2992,-94.996674 -1120.3785,-94.706774 -1120.3785,-94.317014 L -1120.3785,-94.317014 z M -1114.4159,-93.536284 L -1113.3991,-93.365614 C -1113.5299,-92.992804 -1113.7362,-92.708954 -1114.0183,-92.514074 C -1114.3003,-92.319194 -1114.6531,-92.221754 -1115.0768,-92.221754 C -1115.7474,-92.221754 -1116.2436,-92.440844 -1116.5656,-92.879024 C -1116.8198,-93.230044 -1116.9469,-93.673064 -1116.9469,-94.208074 C -1116.9469,-94.847184 -1116.7799,-95.347694 -1116.4458,-95.709614 C -1116.1117,-96.071534 -1115.6893,-96.252494 -1115.1785,-96.252494 C -1114.6047,-96.252494 -1114.152,-96.063064 -1113.8204,-95.684194 C -1113.4887,-95.305334 -1113.3301,-94.724924 -1113.3447,-93.942994 L -1115.9011,-93.942994 C -1115.8938,-93.640384 -1115.8115,-93.404954 -1115.6542,-93.236704 C -1115.4968,-93.068454 -1115.3007,-92.984324 -1115.0659,-92.984324 C -1114.9061,-92.984324 -1114.7718,-93.027904 -1114.6628,-93.115054 C -1114.5539,-93.202204 -1114.4716,-93.342614 -1114.4159,-93.536284 L -1114.4159,-93.536284 z M -1114.3578,-94.567574 C -1114.3651,-94.862914 -1114.4413,-95.087454 -1114.5866,-95.241184 C -1114.7318,-95.394904 -1114.9085,-95.471764 -1115.1167,-95.471764 C -1115.3395,-95.471764 -1115.5234,-95.390664 -1115.6687,-95.228474 C -1115.8139,-95.066274 -1115.8854,-94.845974 -1115.8829,-94.567574 L -1114.3578,-94.567574 z M -1112.553,-92.308904 L -1112.553,-97.632394 L -1111.5326,-97.632394 L -1111.5326,-95.715064 C -1111.2179,-96.073344 -1110.8451,-96.252494 -1110.4142,-96.252494 C -1109.9446,-96.252494 -1109.556,-96.082424 -1109.2485,-95.742294 C -1108.9411,-95.402164 -1108.7874,-94.913754 -1108.7874,-94.277074 C -1108.7874,-93.618594 -1108.9441,-93.111424 -1109.2576,-92.755554 C -1109.5711,-92.399684 -1109.9518,-92.221754 -1110.3997,-92.221754 C -1110.62,-92.221754 -1110.8372,-92.276834 -1111.0515,-92.386974 C -1111.2657,-92.497124 -1111.4503,-92.659934 -1111.6053,-92.875384 L -1111.6053,-92.308904 L -1112.553,-92.308904 z M -1111.5399,-94.320644 C -1111.5399,-93.921204 -1111.477,-93.625854 -1111.3511,-93.434604 C -1111.1744,-93.163474 -1110.9395,-93.027904 -1110.6466,-93.027904 C -1110.4215,-93.027904 -1110.2296,-93.124134 -1110.071,-93.316594 C -1109.9125,-93.509044 -1109.8332,-93.812264 -1109.8332,-94.226234 C -1109.8332,-94.666824 -1109.9131,-94.984564 -1110.0729,-95.179444 C -1110.2326,-95.374324 -1110.4372,-95.471764 -1110.6865,-95.471764 C -1110.9311,-95.471764 -1111.1344,-95.376744 -1111.2966,-95.186714 C -1111.4588,-94.996674 -1111.5399,-94.707984 -1111.5399,-94.320644 L -1111.5399,-94.320644 z M -1105.7298,-93.536294 L -1104.713,-93.365614 C -1104.8438,-92.992804 -1105.0502,-92.708954 -1105.3322,-92.514074 C -1105.6142,-92.319194 -1105.9671,-92.221754 -1106.3907,-92.221754 C -1107.0613,-92.221754 -1107.5576,-92.440844 -1107.8795,-92.879024 C -1108.1337,-93.230044 -1108.2608,-93.673064 -1108.2608,-94.208084 C -1108.2608,-94.847194 -1108.0938,-95.347704 -1107.7597,-95.709634 C -1107.4256,-96.071544 -1107.0032,-96.252504 -1106.4924,-96.252514 C -1105.9186,-96.252504 -1105.4659,-96.063074 -1105.1343,-95.684214 C -1104.8026,-95.305344 -1104.6441,-94.724934 -1104.6586,-93.942994 L -1107.215,-93.942994 C -1107.2078,-93.640384 -1107.1254,-93.404954 -1106.9681,-93.236704 C -1106.8107,-93.068454 -1106.6146,-92.984334 -1106.3798,-92.984334 C -1106.22,-92.984334 -1106.0857,-93.027904 -1105.9767,-93.115054 C -1105.8678,-93.202204 -1105.7855,-93.342614 -1105.7298,-93.536294 L -1105.7298,-93.536294 z M -1105.6717,-94.567584 C -1105.679,-94.862924 -1105.7552,-95.087464 -1105.9005,-95.241194 C -1106.0457,-95.394914 -1106.2225,-95.471774 -1106.4307,-95.471784 C -1106.6534,-95.471774 -1106.8374,-95.390674 -1106.9826,-95.228484 C -1107.1279,-95.066284 -1107.1993,-94.845984 -1107.1969,-94.567584 L -1105.6717,-94.567584 z M -1100.3155,-92.308904 L -1101.3359,-92.308904 L -1101.3359,-94.277074 C -1101.3359,-94.693464 -1101.3577,-94.962784 -1101.4013,-95.085044 C -1101.4449,-95.207294 -1101.5157,-95.302314 -1101.6137,-95.370104 C -1101.7118,-95.437884 -1101.8298,-95.471774 -1101.9678,-95.471784 C -1102.1445,-95.471774 -1102.3031,-95.423354 -1102.4435,-95.326524 C -1102.5839,-95.229684 -1102.6801,-95.101384 -1102.7322,-94.941604 C -1102.7842,-94.781824 -1102.8102,-94.486484 -1102.8102,-94.055564 L -1102.8102,-92.308904 L -1103.8306,-92.308904 L -1103.8306,-96.165364 L -1102.8829,-96.165364 L -1102.8829,-95.598874 C -1102.5464,-96.034634 -1102.1227,-96.252504 -1101.6119,-96.252514 C -1101.3868,-96.252504 -1101.181,-96.211954 -1100.9946,-96.130864 C -1100.8082,-96.049764 -1100.6672,-95.946264 -1100.5715,-95.820384 C -1100.4759,-95.694494 -1100.4093,-95.551664 -1100.3718,-95.391894 C -1100.3343,-95.232114 -1100.3155,-95.003334 -1100.3155,-94.705574 L -1100.3155,-92.308904 z"
         id="text3285"
         style="font-size:14.8738575px;font-style:normal;font-weight:normal;line-height:125%;fill:#000000;fill-opacity:1;stroke:none;stroke-width:1px;stroke-linecap:butt;stroke-linejoin:miter;stroke-opacity:1;font-family:Bitstream Vera Sans" />
    </g>
  </g>
</svg>
