<?xml version="1.0" encoding="UTF-8" standalone="no"?>
<!-- Created with Inkscape (http://www.inkscape.org/) -->
<svg
   xmlns:svg="http://www.w3.org/2000/svg"
   xmlns="http://www.w3.org/2000/svg"
   version="1.0"
   width="158.03149"
   height="158.03149"
   id="svg2">
  <defs
     id="defs4" />
  <g
     transform="translate(1218.442,208.93703)"
     id="layer1">
    <g
       transform="translate(-39.552126,-5.9283973)"
       id="g4128">
      <rect
         width="120.41093"
         height="120.41093"
         rx="10.629922"
         ry="10.629921"
         x="-1160.0796"
         y="-184.19835"
         id="rect2389"
         style="fill:#ffffff;fill-opacity:0.70196078;stroke:#ffffff;stroke-width:2.1875;stroke-linecap:butt;stroke-linejoin:miter;stroke-miterlimit:4;stroke-dasharray:none;stroke-opacity:1" />
      <rect
         width="77.257874"
         height="77.257874"
         rx="6.8203545"
         ry="6.820354"
         x="-904.03357"
         y="651.42334"
         transform="matrix(0.7071068,0.7071068,-0.7071068,0.7071068,0,0)"
         id="rect3218"
         style="fill:#ffffff;fill-opacity:1;stroke:#000000;stroke-width:1.25;stroke-linecap:butt;stroke-linejoin:miter;stroke-miterlimit:4;stroke-dasharray:none;stroke-opacity:1" />
      <path
         d="M -1113.7675,-161.78914 L -1111.798,-161.78914 L -1111.798,-156.50591 C -1111.798,-155.66751 -1111.7736,-155.12411 -1111.7248,-154.8757 C -1111.6405,-154.47646 -1111.4398,-154.15596 -1111.1226,-153.91421 C -1110.8054,-153.67245 -1110.3718,-153.55157 -1109.8218,-153.55157 C -1109.2628,-153.55157 -1108.8414,-153.66579 -1108.5575,-153.89424 C -1108.2736,-154.12269 -1108.1028,-154.40327 -1108.0452,-154.73597 C -1107.9875,-155.06866 -1107.9587,-155.62094 -1107.9587,-156.3928 L -1107.9587,-161.78914 L -1105.9891,-161.78914 L -1105.9891,-156.66561 C -1105.9891,-155.49451 -1106.0423,-154.66721 -1106.1488,-154.18369 C -1106.2553,-153.70017 -1106.4516,-153.29206 -1106.7377,-152.95937 C -1107.0238,-152.62667 -1107.4064,-152.36162 -1107.8855,-152.16422 C -1108.3646,-151.96682 -1108.99,-151.86812 -1109.7619,-151.86812 C -1110.6934,-151.86812 -1111.3999,-151.97569 -1111.8812,-152.19084 C -1112.3625,-152.40598 -1112.7428,-152.68545 -1113.0223,-153.02923 C -1113.3018,-153.37302 -1113.4859,-153.73344 -1113.5746,-154.1105 C -1113.7032,-154.66943 -1113.7675,-155.49451 -1113.7675,-156.58576 L -1113.7675,-161.78914 z M -1104.4055,-155.2084 L -1102.4891,-155.39471 C -1102.3738,-154.75149 -1102.1398,-154.27906 -1101.7871,-153.97742 C -1101.4345,-153.67577 -1100.9587,-153.52495 -1100.3599,-153.52495 C -1099.7255,-153.52495 -1099.2476,-153.65914 -1098.9259,-153.92751 C -1098.6043,-154.19589 -1098.4435,-154.50973 -1098.4435,-154.86905 C -1098.4435,-155.09971 -1098.5112,-155.296 -1098.6465,-155.45792 C -1098.7818,-155.61983 -1099.018,-155.76067 -1099.3551,-155.88044 C -1099.5858,-155.96029 -1100.1115,-156.10224 -1100.9321,-156.3063 C -1101.9879,-156.56801 -1102.7287,-156.88962 -1103.1545,-157.27112 C -1103.7534,-157.80786 -1104.0528,-158.46216 -1104.0528,-159.23403 C -1104.0528,-159.73085 -1103.912,-160.19551 -1103.6303,-160.62803 C -1103.3486,-161.06052 -1102.9427,-161.38989 -1102.4126,-161.61614 C -1101.8825,-161.84236 -1101.2426,-161.95548 -1100.4929,-161.95549 C -1099.2686,-161.95548 -1098.3471,-161.6871 -1097.7282,-161.15036 C -1097.1094,-160.6136 -1096.7845,-159.89719 -1096.7534,-159.00114 L -1098.723,-158.91464 C -1098.8073,-159.41589 -1098.9881,-159.77631 -1099.2653,-159.9959 C -1099.5426,-160.21547 -1099.9584,-160.32526 -1100.5129,-160.32527 C -1101.0852,-160.32526 -1101.5332,-160.20771 -1101.857,-159.97261 C -1102.0655,-159.82178 -1102.1697,-159.61995 -1102.1697,-159.36711 C -1102.1697,-159.13643 -1102.0722,-158.93903 -1101.877,-158.77491 C -1101.6286,-158.56641 -1101.0253,-158.34905 -1100.0671,-158.12282 C -1099.1089,-157.89658 -1098.4003,-157.66258 -1097.9412,-157.42083 C -1097.4821,-157.17907 -1097.1227,-156.84859 -1096.8632,-156.42939 C -1096.6037,-156.01019 -1096.474,-155.49229 -1096.474,-154.8757 C -1096.474,-154.31677 -1096.6292,-153.79332 -1096.9397,-153.30537 C -1097.2503,-152.81742 -1097.6894,-152.45478 -1098.2572,-152.21745 C -1098.825,-151.98013 -1099.5326,-151.86147 -1100.3798,-151.86147 C -1101.613,-151.86147 -1102.5601,-152.14648 -1103.2211,-152.7165 C -1103.882,-153.28652 -1104.2768,-154.11715 -1104.4055,-155.2084 L -1104.4055,-155.2084 z M -1094.7772,-152.03447 L -1094.7772,-161.78914 L -1092.8077,-161.78914 L -1092.8077,-157.45743 L -1088.8286,-161.78914 L -1086.1803,-161.78914 L -1089.8533,-157.98974 L -1085.9807,-152.03447 L -1088.5292,-152.03447 L -1091.2107,-156.61238 L -1092.8077,-154.98216 L -1092.8077,-152.03447 L -1094.7772,-152.03447 z"
         id="text3189"
         style="font-size:14.86609936px;font-style:normal;font-weight:normal;line-height:125%;fill:#000000;fill-opacity:1;stroke:none;stroke-width:1px;stroke-linecap:butt;stroke-linejoin:miter;stroke-opacity:1;font-family:Bitstream Vera Sans" />
      <path
         d="M -1102.9081,-147.05678 L -1103.8341,-147.22382 C -1103.73,-147.59663 -1103.5508,-147.87261 -1103.2967,-148.05176 C -1103.0425,-148.2309 -1102.6648,-148.32047 -1102.1637,-148.32048 C -1101.7086,-148.32047 -1101.3696,-148.26661 -1101.1469,-148.15888 C -1100.9242,-148.05115 -1100.7675,-147.91437 -1100.6767,-147.74855 C -1100.5859,-147.58271 -1100.5405,-147.27829 -1100.5405,-146.83527 L -1100.5514,-145.64421 C -1100.5514,-145.30529 -1100.5351,-145.05533 -1100.5024,-144.89435 C -1100.4697,-144.73336 -1100.4086,-144.56087 -1100.319,-144.37688 L -1101.3285,-144.37688 C -1101.3551,-144.44467 -1101.3878,-144.54513 -1101.4265,-144.67828 C -1101.4435,-144.7388 -1101.4556,-144.77875 -1101.4628,-144.79812 C -1101.6372,-144.62865 -1101.8236,-144.50156 -1102.0221,-144.41683 C -1102.2206,-144.3321 -1102.4324,-144.28973 -1102.6575,-144.28973 C -1103.0546,-144.28973 -1103.3675,-144.39746 -1103.5962,-144.61292 C -1103.825,-144.82838 -1103.9394,-145.10072 -1103.9394,-145.42996 C -1103.9394,-145.64784 -1103.8873,-145.84211 -1103.7832,-146.01279 C -1103.6792,-146.18345 -1103.5333,-146.31418 -1103.3457,-146.40497 C -1103.1581,-146.49575 -1102.8875,-146.57503 -1102.5341,-146.64282 C -1102.0572,-146.73239 -1101.7267,-146.8159 -1101.5427,-146.89338 L -1101.5427,-146.99505 C -1101.5427,-147.19114 -1101.5912,-147.33094 -1101.688,-147.41447 C -1101.7848,-147.49798 -1101.9676,-147.53974 -1102.2363,-147.53975 C -1102.4179,-147.53974 -1102.5595,-147.50404 -1102.6612,-147.43262 C -1102.7629,-147.3612 -1102.8452,-147.23592 -1102.9081,-147.05678 L -1102.9081,-147.05678 z M -1101.5427,-146.22885 C -1101.6735,-146.18527 -1101.8804,-146.13322 -1102.1637,-146.0727 C -1102.4469,-146.01218 -1102.6321,-145.95287 -1102.7193,-145.89477 C -1102.8524,-145.80035 -1102.919,-145.68052 -1102.919,-145.53527 C -1102.919,-145.39244 -1102.8657,-145.26897 -1102.7592,-145.16488 C -1102.6527,-145.06078 -1102.5171,-145.00873 -1102.3525,-145.00873 C -1102.1685,-145.00873 -1101.993,-145.06925 -1101.826,-145.1903 C -1101.7025,-145.28229 -1101.6214,-145.39486 -1101.5827,-145.52801 C -1101.5561,-145.61516 -1101.5427,-145.78099 -1101.5427,-146.02549 L -1101.5427,-146.22885 z M -1099.5746,-144.37688 L -1099.5746,-149.70037 L -1098.5542,-149.70037 L -1098.5542,-147.78304 C -1098.2395,-148.14133 -1097.8667,-148.32047 -1097.4357,-148.32048 C -1096.9661,-148.32047 -1096.5775,-148.15041 -1096.2701,-147.81028 C -1095.9626,-147.47014 -1095.8089,-146.98173 -1095.8089,-146.34505 C -1095.8089,-145.68657 -1095.9657,-145.1794 -1096.2792,-144.82353 C -1096.5927,-144.46767 -1096.9734,-144.28973 -1097.4212,-144.28973 C -1097.6415,-144.28973 -1097.8588,-144.34481 -1098.073,-144.45496 C -1098.2873,-144.56511 -1098.4719,-144.72791 -1098.6268,-144.94337 L -1098.6268,-144.37688 L -1099.5746,-144.37688 z M -1098.5614,-146.38862 C -1098.5614,-145.98918 -1098.4985,-145.69383 -1098.3726,-145.50259 C -1098.1959,-145.23145 -1097.9611,-145.09588 -1097.6681,-145.09588 C -1097.443,-145.09588 -1097.2511,-145.19211 -1097.0926,-145.38457 C -1096.934,-145.57703 -1096.8547,-145.88024 -1096.8547,-146.29421 C -1096.8547,-146.73481 -1096.9346,-147.05254 -1097.0944,-147.24743 C -1097.2542,-147.4423 -1097.4587,-147.53974 -1097.7081,-147.53975 C -1097.9526,-147.53974 -1098.1559,-147.44472 -1098.3181,-147.25469 C -1098.4803,-147.06465 -1098.5614,-146.77596 -1098.5614,-146.38862 L -1098.5614,-146.38862 z"
         id="text3193"
         style="font-size:12px;font-style:normal;font-weight:normal;line-height:125%;fill:#000000;fill-opacity:1;stroke:none;stroke-width:1px;stroke-linecap:butt;stroke-linejoin:miter;stroke-opacity:1;font-family:Bitstream Vera Sans" />
      <path
         d="M -1099.8741,-140.38296 C -1096.457,-140.38292 -1093.7859,-139.16367 -1091.8608,-136.72521 C -1089.5667,-133.83749 -1088.4196,-129.04873 -1088.4196,-122.35893 C -1088.4196,-115.68513 -1089.5747,-110.88835 -1091.8848,-107.96858 C -1093.794,-105.56217 -1096.457,-104.35896 -1099.8741,-104.35896 C -1103.3073,-104.35896 -1106.0747,-105.67848 -1108.1763,-108.31751 C -1110.2779,-110.95654 -1111.3287,-115.66107 -1111.3287,-122.43112 C -1111.3287,-129.07279 -1110.1736,-133.85353 -1107.8634,-136.77334 C -1105.9543,-139.17972 -1103.2913,-140.38292 -1099.8741,-140.38296 L -1099.8741,-140.38296 z M -1099.8741,-134.77602 C -1100.6923,-134.77599 -1101.4223,-134.51529 -1102.064,-133.99393 C -1102.7057,-133.47251 -1103.203,-132.53802 -1103.5559,-131.19046 C -1104.0212,-129.44178 -1104.2538,-126.49793 -1104.2538,-122.35893 C -1104.2538,-118.21988 -1104.0453,-115.37631 -1103.6281,-113.82819 C -1103.211,-112.28006 -1102.6856,-111.24932 -1102.0519,-110.73595 C -1101.4183,-110.22258 -1100.6923,-109.9659 -1099.8741,-109.9659 C -1099.056,-109.9659 -1098.326,-110.22659 -1097.6843,-110.74799 C -1097.0426,-111.26937 -1096.5453,-112.20386 -1096.1923,-113.55146 C -1095.7271,-115.28406 -1095.4945,-118.21988 -1095.4945,-122.35893 C -1095.4945,-126.49793 -1095.703,-129.34151 -1096.1201,-130.88966 C -1096.5373,-132.43776 -1097.0627,-133.47251 -1097.6963,-133.99393 C -1098.33,-134.51529 -1099.056,-134.77599 -1099.8741,-134.77602 L -1099.8741,-134.77602 z"
         id="text3197"
         style="font-size:14.78499889px;font-style:normal;font-weight:normal;line-height:125%;fill:#000000;fill-opacity:1;stroke:none;stroke-width:1px;stroke-linecap:butt;stroke-linejoin:miter;stroke-opacity:1;font-family:Bitstream Vera Sans" />
      <path
         d="M -1120.6688,-96.873226 L -1120.1023,-96.873226 L -1120.1023,-97.163736 C -1120.1023,-97.488126 -1120.0678,-97.730216 -1119.9988,-97.889996 C -1119.9298,-98.049766 -1119.8027,-98.179886 -1119.6175,-98.280366 C -1119.4323,-98.380826 -1119.1981,-98.431056 -1118.9149,-98.431066 C -1118.6244,-98.431056 -1118.3399,-98.387476 -1118.0615,-98.300336 L -1118.1995,-97.588596 C -1118.3617,-97.627326 -1118.5179,-97.646696 -1118.668,-97.646696 C -1118.8156,-97.646696 -1118.9215,-97.612196 -1118.9857,-97.543206 C -1119.0499,-97.474206 -1119.0819,-97.341666 -1119.0819,-97.145576 L -1119.0819,-96.873226 L -1118.3194,-96.873226 L -1118.3194,-96.070706 L -1119.0819,-96.070706 L -1119.0819,-93.016776 L -1120.1023,-93.016776 L -1120.1023,-96.070706 L -1120.6688,-96.070706 L -1120.6688,-96.873226 z M -1116.7615,-93.016776 L -1117.7819,-93.016776 L -1117.7819,-96.873226 L -1116.8341,-96.873226 L -1116.8341,-96.324896 C -1116.6719,-96.583926 -1116.5261,-96.754606 -1116.3966,-96.836916 C -1116.2671,-96.919216 -1116.12,-96.960376 -1115.9554,-96.960376 C -1115.723,-96.960376 -1115.499,-96.896226 -1115.2836,-96.767916 L -1115.5995,-95.878246 C -1115.7714,-95.989606 -1115.9312,-96.045286 -1116.0788,-96.045286 C -1116.2217,-96.045286 -1116.3427,-96.005946 -1116.442,-95.927266 C -1116.5412,-95.848586 -1116.6193,-95.706366 -1116.6762,-95.500596 C -1116.7331,-95.294816 -1116.7615,-94.863896 -1116.7615,-94.207846 L -1116.7615,-93.016776 z M -1112.6146,-94.244156 L -1111.5978,-94.073486 C -1111.7285,-93.700666 -1111.9349,-93.416826 -1112.2169,-93.221946 C -1112.499,-93.027066 -1112.8518,-92.929626 -1113.2755,-92.929626 C -1113.946,-92.929626 -1114.4423,-93.148706 -1114.7643,-93.586886 C -1115.0185,-93.937916 -1115.1456,-94.380926 -1115.1456,-94.915946 C -1115.1456,-95.555046 -1114.9785,-96.055566 -1114.6445,-96.417486 C -1114.3104,-96.779396 -1113.8879,-96.960356 -1113.3771,-96.960366 C -1112.8034,-96.960356 -1112.3507,-96.770926 -1112.019,-96.392066 C -1111.6874,-96.013196 -1111.5288,-95.432796 -1111.5433,-94.650856 L -1114.0998,-94.650856 C -1114.0925,-94.348246 -1114.0102,-94.112816 -1113.8528,-93.944566 C -1113.6955,-93.776316 -1113.4994,-93.692196 -1113.2646,-93.692196 C -1113.1048,-93.692196 -1112.9704,-93.735766 -1112.8615,-93.822926 C -1112.7526,-93.910076 -1112.6703,-94.050486 -1112.6146,-94.244156 L -1112.6146,-94.244156 z M -1112.5565,-95.275446 C -1112.5637,-95.570786 -1112.64,-95.795316 -1112.7852,-95.949046 C -1112.9305,-96.102766 -1113.1072,-96.179636 -1113.3154,-96.179636 C -1113.5381,-96.179636 -1113.7221,-96.098536 -1113.8674,-95.936336 C -1114.0126,-95.774136 -1114.084,-95.553836 -1114.0816,-95.275446 L -1112.5565,-95.275446 z M -1110.7081,-97.396116 L -1110.7081,-98.340256 L -1109.6877,-98.340256 L -1109.6877,-97.396116 L -1110.7081,-97.396116 z M -1110.7081,-93.016776 L -1110.7081,-96.873216 L -1109.6877,-96.873216 L -1109.6877,-93.016776 L -1110.7081,-93.016776 z M -1108.74,-92.762586 L -1107.5743,-92.620966 C -1107.555,-92.485396 -1107.5102,-92.392186 -1107.44,-92.341356 C -1107.3431,-92.268726 -1107.1906,-92.232416 -1106.9824,-92.232416 C -1106.7161,-92.232416 -1106.5164,-92.272356 -1106.3833,-92.352246 C -1106.2937,-92.405506 -1106.2259,-92.491446 -1106.1799,-92.610066 C -1106.1484,-92.694796 -1106.1327,-92.850946 -1106.1327,-93.078506 L -1106.1327,-93.641356 C -1106.4377,-93.224966 -1106.8226,-93.016776 -1107.2875,-93.016776 C -1107.8055,-93.016776 -1108.2159,-93.235866 -1108.5185,-93.674036 C -1108.7557,-94.020226 -1108.8743,-94.451136 -1108.8743,-94.966786 C -1108.8743,-95.613146 -1108.7188,-96.107006 -1108.4077,-96.448346 C -1108.0966,-96.789686 -1107.7099,-96.960356 -1107.2475,-96.960366 C -1106.7706,-96.960356 -1106.3772,-96.750956 -1106.0673,-96.332146 L -1106.0673,-96.873216 L -1105.1123,-96.873216 L -1105.1123,-93.412586 C -1105.1123,-92.957466 -1105.1498,-92.617336 -1105.2249,-92.392186 C -1105.2999,-92.167046 -1105.4052,-91.990326 -1105.5408,-91.862016 C -1105.6764,-91.733716 -1105.8573,-91.633246 -1106.0837,-91.560626 C -1106.31,-91.487996 -1106.5963,-91.451686 -1106.9425,-91.451686 C -1107.5961,-91.451686 -1108.0597,-91.563646 -1108.3333,-91.787576 C -1108.6068,-92.011506 -1108.7436,-92.295356 -1108.7436,-92.639116 C -1108.7436,-92.673006 -1108.7424,-92.714166 -1108.74,-92.762586 L -1108.74,-92.762586 z M -1107.8285,-95.024886 C -1107.8285,-94.615756 -1107.7492,-94.316176 -1107.5907,-94.126136 C -1107.4321,-93.936096 -1107.2366,-93.841076 -1107.0042,-93.841076 C -1106.7549,-93.841076 -1106.5442,-93.938516 -1106.3724,-94.133396 C -1106.2005,-94.328276 -1106.1145,-94.616966 -1106.1145,-94.999466 C -1106.1145,-95.398906 -1106.1969,-95.695456 -1106.3615,-95.889126 C -1106.5261,-96.082796 -1106.7343,-96.179636 -1106.9861,-96.179636 C -1107.2306,-96.179636 -1107.4321,-96.084616 -1107.5907,-95.894576 C -1107.7492,-95.704536 -1107.8285,-95.414636 -1107.8285,-95.024886 L -1107.8285,-95.024886 z M -1101.8659,-94.244156 L -1100.8492,-94.073486 C -1100.9799,-93.700666 -1101.1863,-93.416826 -1101.4683,-93.221946 C -1101.7503,-93.027066 -1102.1032,-92.929626 -1102.5268,-92.929626 C -1103.1974,-92.929626 -1103.6937,-93.148706 -1104.0157,-93.586886 C -1104.2698,-93.937916 -1104.3969,-94.380926 -1104.3969,-94.915946 C -1104.3969,-95.555046 -1104.2299,-96.055566 -1103.8958,-96.417486 C -1103.5617,-96.779396 -1103.1393,-96.960356 -1102.6285,-96.960366 C -1102.0548,-96.960356 -1101.6021,-96.770926 -1101.2704,-96.392066 C -1100.9387,-96.013196 -1100.7802,-95.432796 -1100.7947,-94.650856 L -1103.3511,-94.650856 C -1103.3439,-94.348246 -1103.2616,-94.112816 -1103.1042,-93.944566 C -1102.9468,-93.776316 -1102.7508,-93.692196 -1102.5159,-93.692196 C -1102.3562,-93.692196 -1102.2218,-93.735766 -1102.1129,-93.822926 C -1102.0039,-93.910076 -1101.9216,-94.050486 -1101.8659,-94.244156 L -1101.8659,-94.244156 z M -1101.8078,-95.275446 C -1101.8151,-95.570786 -1101.8913,-95.795316 -1102.0366,-95.949046 C -1102.1818,-96.102766 -1102.3586,-96.179636 -1102.5668,-96.179636 C -1102.7895,-96.179636 -1102.9735,-96.098536 -1103.1187,-95.936336 C -1103.264,-95.774136 -1103.3354,-95.553836 -1103.333,-95.275446 L -1101.8078,-95.275446 z M -1100.0539,-92.762586 L -1098.8883,-92.620966 C -1098.8689,-92.485396 -1098.8241,-92.392186 -1098.7539,-92.341356 C -1098.6571,-92.268726 -1098.5046,-92.232416 -1098.2964,-92.232416 C -1098.0301,-92.232416 -1097.8303,-92.272356 -1097.6972,-92.352246 C -1097.6076,-92.405506 -1097.5398,-92.491446 -1097.4938,-92.610066 C -1097.4624,-92.694796 -1097.4466,-92.850946 -1097.4466,-93.078506 L -1097.4466,-93.641356 C -1097.7517,-93.224966 -1098.1366,-93.016776 -1098.6014,-93.016776 C -1099.1195,-93.016776 -1099.5298,-93.235866 -1099.8324,-93.674036 C -1100.0696,-94.020226 -1100.1883,-94.451136 -1100.1883,-94.966786 C -1100.1883,-95.613146 -1100.0327,-96.107006 -1099.7216,-96.448346 C -1099.4106,-96.789686 -1099.0238,-96.960356 -1098.5614,-96.960366 C -1098.0845,-96.960356 -1097.6911,-96.750956 -1097.3813,-96.332146 L -1097.3813,-96.873216 L -1096.4262,-96.873216 L -1096.4262,-93.412586 C -1096.4262,-92.957466 -1096.4638,-92.617336 -1096.5388,-92.392186 C -1096.6139,-92.167046 -1096.7192,-91.990326 -1096.8547,-91.862016 C -1096.9903,-91.733716 -1097.1713,-91.633246 -1097.3976,-91.560626 C -1097.624,-91.487996 -1097.9102,-91.451686 -1098.2564,-91.451686 C -1098.91,-91.451686 -1099.3736,-91.563646 -1099.6472,-91.787576 C -1099.9208,-92.011506 -1100.0575,-92.295356 -1100.0575,-92.639116 C -1100.0575,-92.673006 -1100.0563,-92.714166 -1100.0539,-92.762586 L -1100.0539,-92.762586 z M -1099.1424,-95.024886 C -1099.1425,-94.615756 -1099.0632,-94.316176 -1098.9046,-94.126136 C -1098.746,-93.936096 -1098.5505,-93.841076 -1098.3181,-93.841076 C -1098.0688,-93.841076 -1097.8582,-93.938516 -1097.6863,-94.133396 C -1097.5144,-94.328276 -1097.4285,-94.616966 -1097.4285,-94.999466 C -1097.4285,-95.398906 -1097.5108,-95.695456 -1097.6754,-95.889126 C -1097.84,-96.082796 -1098.0482,-96.179636 -1098.3,-96.179636 C -1098.5445,-96.179636 -1098.746,-96.084616 -1098.9046,-95.894576 C -1099.0632,-95.704536 -1099.1425,-95.414636 -1099.1424,-95.024886 L -1099.1424,-95.024886 z M -1093.1799,-94.244156 L -1092.1631,-94.073486 C -1092.2938,-93.700666 -1092.5002,-93.416826 -1092.7822,-93.221946 C -1093.0643,-93.027066 -1093.4171,-92.929626 -1093.8408,-92.929626 C -1094.5113,-92.929626 -1095.0076,-93.148706 -1095.3296,-93.586886 C -1095.5838,-93.937916 -1095.7109,-94.380926 -1095.7109,-94.915946 C -1095.7109,-95.555046 -1095.5438,-96.055566 -1095.2098,-96.417486 C -1094.8757,-96.779396 -1094.4532,-96.960356 -1093.9424,-96.960366 C -1093.3687,-96.960356 -1092.916,-96.770926 -1092.5843,-96.392066 C -1092.2527,-96.013196 -1092.0941,-95.432796 -1092.1086,-94.650856 L -1094.6651,-94.650856 C -1094.6578,-94.348246 -1094.5755,-94.112816 -1094.4181,-93.944566 C -1094.2608,-93.776316 -1094.0647,-93.692196 -1093.8299,-93.692196 C -1093.6701,-93.692196 -1093.5357,-93.735766 -1093.4268,-93.822926 C -1093.3178,-93.910076 -1093.2355,-94.050486 -1093.1799,-94.244156 L -1093.1799,-94.244156 z M -1093.1218,-95.275446 C -1093.129,-95.570786 -1093.2053,-95.795316 -1093.3505,-95.949046 C -1093.4958,-96.102766 -1093.6725,-96.179636 -1093.8807,-96.179636 C -1094.1034,-96.179636 -1094.2874,-96.098536 -1094.4327,-95.936336 C -1094.5779,-95.774136 -1094.6493,-95.553836 -1094.6469,-95.275446 L -1093.1218,-95.275446 z M -1091.317,-93.016776 L -1091.317,-98.340256 L -1090.2966,-98.340256 L -1090.2966,-96.422936 C -1089.9819,-96.781216 -1089.6091,-96.960356 -1089.1782,-96.960366 C -1088.7085,-96.960356 -1088.32,-96.790296 -1088.0125,-96.450166 C -1087.7051,-96.110036 -1087.5513,-95.621626 -1087.5513,-94.984936 C -1087.5513,-94.326456 -1087.7081,-93.819286 -1088.0216,-93.463426 C -1088.3351,-93.107556 -1088.7158,-92.929626 -1089.1636,-92.929626 C -1089.3839,-92.929626 -1089.6012,-92.984696 -1089.8155,-93.094846 C -1090.0297,-93.204996 -1090.2143,-93.367796 -1090.3692,-93.583256 L -1090.3692,-93.016776 L -1091.317,-93.016776 z M -1090.3039,-95.028516 C -1090.3039,-94.629066 -1090.2409,-94.333726 -1090.115,-94.142476 C -1089.9383,-93.871336 -1089.7035,-93.735766 -1089.4106,-93.735766 C -1089.1854,-93.735766 -1088.9936,-93.831996 -1088.835,-94.024456 C -1088.6764,-94.216916 -1088.5972,-94.520126 -1088.5972,-94.934096 C -1088.5972,-95.374696 -1088.677,-95.692436 -1088.8368,-95.887316 C -1088.9966,-96.082196 -1089.2012,-96.179636 -1089.4505,-96.179636 C -1089.695,-96.179636 -1089.8984,-96.084616 -1090.0606,-95.894576 C -1090.2228,-95.704536 -1090.3039,-95.415846 -1090.3039,-95.028516 L -1090.3039,-95.028516 z M -1084.4938,-94.244156 L -1083.477,-94.073486 C -1083.6077,-93.700666 -1083.8141,-93.416826 -1084.0962,-93.221946 C -1084.3782,-93.027066 -1084.731,-92.929626 -1085.1547,-92.929626 C -1085.8253,-92.929626 -1086.3215,-93.148716 -1086.6435,-93.586886 C -1086.8977,-93.937916 -1087.0248,-94.380936 -1087.0248,-94.915946 C -1087.0248,-95.555056 -1086.8578,-96.055576 -1086.5237,-96.417496 C -1086.1896,-96.779416 -1085.7672,-96.960376 -1085.2564,-96.960376 C -1084.6826,-96.960376 -1084.2299,-96.770946 -1083.8982,-96.392076 C -1083.5666,-96.013206 -1083.408,-95.432806 -1083.4225,-94.650866 L -1085.979,-94.650866 C -1085.9717,-94.348256 -1085.8894,-94.112826 -1085.7321,-93.944576 C -1085.5747,-93.776326 -1085.3786,-93.692196 -1085.1438,-93.692196 C -1084.984,-93.692196 -1084.8497,-93.735776 -1084.7407,-93.822926 C -1084.6318,-93.910076 -1084.5495,-94.050486 -1084.4938,-94.244156 L -1084.4938,-94.244156 z M -1084.4357,-95.275446 C -1084.4429,-95.570796 -1084.5192,-95.795326 -1084.6645,-95.949056 C -1084.8097,-96.102786 -1084.9864,-96.179646 -1085.1946,-96.179646 C -1085.4173,-96.179646 -1085.6013,-96.098546 -1085.7466,-95.936346 C -1085.8918,-95.774146 -1085.9633,-95.553846 -1085.9608,-95.275446 L -1084.4357,-95.275446 z M -1079.0795,-93.016776 L -1080.0999,-93.016776 L -1080.0999,-94.984946 C -1080.0999,-95.401336 -1080.1217,-95.670656 -1080.1653,-95.792916 C -1080.2088,-95.915166 -1080.2796,-96.010186 -1080.3777,-96.077966 C -1080.4757,-96.145756 -1080.5938,-96.179646 -1080.7317,-96.179646 C -1080.9085,-96.179646 -1081.067,-96.131226 -1081.2074,-96.034396 C -1081.3479,-95.937556 -1081.4441,-95.809246 -1081.4961,-95.649476 C -1081.5482,-95.489696 -1081.5742,-95.194346 -1081.5742,-94.763436 L -1081.5742,-93.016776 L -1082.5946,-93.016776 L -1082.5946,-96.873226 L -1081.6468,-96.873226 L -1081.6468,-96.306746 C -1081.3103,-96.742496 -1080.8867,-96.960376 -1080.3759,-96.960376 C -1080.1507,-96.960376 -1079.945,-96.919826 -1079.7585,-96.838726 C -1079.5721,-96.757626 -1079.4311,-96.654136 -1079.3355,-96.528256 C -1079.2399,-96.402366 -1079.1733,-96.259536 -1079.1358,-96.099756 C -1079.0983,-95.939976 -1079.0795,-95.711206 -1079.0795,-95.413436 L -1079.0795,-93.016776 z"
         id="text3201"
         style="font-size:14.8738575px;font-style:normal;font-weight:normal;line-height:125%;fill:#000000;fill-opacity:1;stroke:none;stroke-width:1px;stroke-linecap:butt;stroke-linejoin:miter;stroke-opacity:1;font-family:Bitstream Vera Sans" />
    </g>
  </g>
</svg>
