<?xml version="1.0" encoding="UTF-8" standalone="no"?>
<!-- Created with Inkscape (http://www.inkscape.org/) -->
<svg
   xmlns:svg="http://www.w3.org/2000/svg"
   xmlns="http://www.w3.org/2000/svg"
   version="1.0"
   width="158.03149"
   height="158.03149"
   id="svg2">
  <defs
     id="defs4" />
  <g
     transform="translate(1218.442,208.93703)"
     id="layer1">
    <g
       transform="translate(-111.75464,-17.254279)"
       id="g4248">
      <rect
         width="120.41093"
         height="120.41093"
         rx="10.629922"
         ry="10.629921"
         x="-1087.8771"
         y="-172.87247"
         id="rect3235"
         style="fill:#fff300;fill-opacity:0.7;stroke:#fff300;stroke-width:2.1875;stroke-linecap:butt;stroke-linejoin:miter;stroke-miterlimit:4;stroke-dasharray:none;stroke-opacity:1" />
      <rect
         width="77.257874"
         height="77.257874"
         rx="6.8203545"
         ry="6.820354"
         x="-844.97003"
         y="608.37708"
         transform="matrix(0.7071068,0.7071068,-0.7071068,0.7071068,0,0)"
         id="rect3237"
         style="fill:#fff300;fill-opacity:1;stroke:#000000;stroke-width:1.25;stroke-linecap:butt;stroke-linejoin:miter;stroke-miterlimit:4;stroke-dasharray:none;stroke-opacity:1" />
      <path
         d="M -1041.565,-150.46324 L -1039.5955,-150.46324 L -1039.5955,-145.18002 C -1039.5955,-144.34162 -1039.5711,-143.79822 -1039.5223,-143.54981 C -1039.438,-143.15057 -1039.2373,-142.83007 -1038.9201,-142.58831 C -1038.6029,-142.34655 -1038.1693,-142.22567 -1037.6192,-142.22567 C -1037.0603,-142.22567 -1036.6389,-142.3399 -1036.355,-142.56835 C -1036.0711,-142.7968 -1035.9003,-143.07737 -1035.8426,-143.41007 C -1035.785,-143.74277 -1035.7561,-144.29504 -1035.7561,-145.0669 L -1035.7561,-150.46324 L -1033.7866,-150.46324 L -1033.7866,-145.33971 C -1033.7866,-144.16862 -1033.8398,-143.34131 -1033.9463,-142.8578 C -1034.0527,-142.37428 -1034.249,-141.96617 -1034.5351,-141.63347 C -1034.8213,-141.30078 -1035.2039,-141.03573 -1035.6829,-140.83833 C -1036.162,-140.64093 -1036.7875,-140.54223 -1037.5594,-140.54223 C -1038.4909,-140.54223 -1039.1973,-140.6498 -1039.6786,-140.86494 C -1040.1599,-141.08009 -1040.5403,-141.35955 -1040.8198,-141.70334 C -1041.0993,-142.04712 -1041.2833,-142.40755 -1041.3721,-142.7846 C -1041.5007,-143.34353 -1041.565,-144.16862 -1041.565,-145.25987 L -1041.565,-150.46324 z M -1032.2029,-143.8825 L -1030.2866,-144.06881 C -1030.1713,-143.4256 -1029.9373,-142.95317 -1029.5846,-142.65153 C -1029.232,-142.34988 -1028.7562,-142.19906 -1028.1573,-142.19906 C -1027.523,-142.19906 -1027.045,-142.33324 -1026.7234,-142.60162 C -1026.4018,-142.86999 -1026.241,-143.18384 -1026.241,-143.54315 C -1026.241,-143.77382 -1026.3087,-143.97011 -1026.444,-144.13203 C -1026.5793,-144.29393 -1026.8155,-144.43478 -1027.1526,-144.55455 C -1027.3833,-144.63439 -1027.9089,-144.77634 -1028.7296,-144.9804 C -1029.7853,-145.24212 -1030.5262,-145.56373 -1030.952,-145.94522 C -1031.5509,-146.48197 -1031.8503,-147.13627 -1031.8503,-147.90813 C -1031.8503,-148.40495 -1031.7094,-148.86962 -1031.4278,-149.30213 C -1031.1461,-149.73463 -1030.7402,-150.064 -1030.2101,-150.29024 C -1029.68,-150.51647 -1029.0401,-150.62958 -1028.2904,-150.62959 C -1027.0661,-150.62958 -1026.1445,-150.36121 -1025.5257,-149.82447 C -1024.9069,-149.28771 -1024.582,-148.5713 -1024.5509,-147.67525 L -1026.5205,-147.58874 C -1026.6048,-148.09 -1026.7855,-148.45042 -1027.0628,-148.67001 C -1027.34,-148.88958 -1027.7559,-148.99937 -1028.3104,-148.99938 C -1028.8826,-148.99937 -1029.3307,-148.88182 -1029.6545,-148.64672 C -1029.863,-148.49589 -1029.9672,-148.29405 -1029.9672,-148.04121 C -1029.9672,-147.81054 -1029.8696,-147.61314 -1029.6744,-147.44901 C -1029.426,-147.24052 -1028.8227,-147.02315 -1027.8646,-146.79693 C -1026.9064,-146.57069 -1026.1978,-146.33669 -1025.7386,-146.09494 C -1025.2795,-145.85317 -1024.9202,-145.52269 -1024.6607,-145.1035 C -1024.4012,-144.6843 -1024.2715,-144.1664 -1024.2715,-143.54981 C -1024.2715,-142.99087 -1024.4267,-142.46743 -1024.7372,-141.97948 C -1025.0478,-141.49152 -1025.4869,-141.12888 -1026.0547,-140.89156 C -1026.6225,-140.65424 -1027.33,-140.53557 -1028.1773,-140.53557 C -1029.4105,-140.53557 -1030.3576,-140.82058 -1031.0185,-141.3906 C -1031.6795,-141.96062 -1032.0743,-142.79126 -1032.2029,-143.8825 L -1032.2029,-143.8825 z M -1022.5747,-140.70858 L -1022.5747,-150.46324 L -1020.6051,-150.46324 L -1020.6051,-146.13153 L -1016.6261,-150.46324 L -1013.9778,-150.46324 L -1017.6508,-146.66385 L -1013.7782,-140.70858 L -1016.3267,-140.70858 L -1019.0082,-145.28648 L -1020.6051,-143.65627 L -1020.6051,-140.70858 L -1022.5747,-140.70858 z"
         id="text3241"
         style="font-size:14.86609936px;font-style:normal;font-weight:normal;line-height:125%;fill:#000000;fill-opacity:1;stroke:none;stroke-width:1px;stroke-linecap:butt;stroke-linejoin:miter;stroke-opacity:1;font-family:Bitstream Vera Sans" />
      <path
         d="M -1030.7056,-135.73088 L -1031.6315,-135.89792 C -1031.5274,-136.27073 -1031.3483,-136.54671 -1031.0941,-136.72586 C -1030.8399,-136.905 -1030.4623,-136.99457 -1029.9611,-136.99457 C -1029.506,-136.99457 -1029.1671,-136.94071 -1028.9444,-136.83298 C -1028.7217,-136.72525 -1028.5649,-136.58847 -1028.4741,-136.42264 C -1028.3833,-136.25681 -1028.3379,-135.95239 -1028.3379,-135.50937 L -1028.3488,-134.31831 C -1028.3488,-133.97938 -1028.3325,-133.72943 -1028.2998,-133.56844 C -1028.2671,-133.40746 -1028.206,-133.23497 -1028.1164,-133.05098 L -1029.1259,-133.05098 C -1029.1526,-133.11877 -1029.1853,-133.21923 -1029.224,-133.35238 C -1029.2409,-133.4129 -1029.253,-133.45285 -1029.2603,-133.47221 C -1029.4346,-133.30275 -1029.621,-133.17566 -1029.8195,-133.09093 C -1030.018,-133.0062 -1030.2299,-132.96383 -1030.455,-132.96383 C -1030.852,-132.96383 -1031.1649,-133.07156 -1031.3937,-133.28702 C -1031.6225,-133.50247 -1031.7368,-133.77482 -1031.7368,-134.10406 C -1031.7368,-134.32194 -1031.6848,-134.51621 -1031.5807,-134.68688 C -1031.4766,-134.85755 -1031.3307,-134.98828 -1031.1431,-135.07906 C -1030.9555,-135.16984 -1030.685,-135.24913 -1030.3315,-135.31691 C -1029.8546,-135.40648 -1029.5242,-135.49 -1029.3402,-135.56747 L -1029.3402,-135.66915 C -1029.3402,-135.86524 -1029.3886,-136.00504 -1029.4854,-136.08857 C -1029.5823,-136.17208 -1029.765,-136.21384 -1030.0338,-136.21385 C -1030.2153,-136.21384 -1030.3569,-136.17813 -1030.4586,-136.10672 C -1030.5603,-136.0353 -1030.6426,-135.91002 -1030.7056,-135.73088 L -1030.7056,-135.73088 z M -1029.3402,-134.90295 C -1029.4709,-134.85937 -1029.6779,-134.80732 -1029.9611,-134.7468 C -1030.2444,-134.68628 -1030.4296,-134.62697 -1030.5167,-134.56887 C -1030.6499,-134.47445 -1030.7164,-134.35462 -1030.7164,-134.20937 C -1030.7164,-134.06654 -1030.6632,-133.94307 -1030.5567,-133.83898 C -1030.4502,-133.73488 -1030.3146,-133.68283 -1030.15,-133.68283 C -1029.966,-133.68283 -1029.7905,-133.74335 -1029.6234,-133.86439 C -1029.5,-133.95639 -1029.4189,-134.06896 -1029.3801,-134.20211 C -1029.3535,-134.28926 -1029.3402,-134.45508 -1029.3402,-134.69959 L -1029.3402,-134.90295 z M -1027.372,-133.05098 L -1027.372,-138.37447 L -1026.3516,-138.37447 L -1026.3516,-136.45714 C -1026.0369,-136.81543 -1025.6641,-136.99457 -1025.2332,-136.99457 C -1024.7635,-136.99457 -1024.375,-136.8245 -1024.0675,-136.48438 C -1023.7601,-136.14424 -1023.6064,-135.65583 -1023.6064,-135.01915 C -1023.6064,-134.36067 -1023.7631,-133.8535 -1024.0766,-133.49763 C -1024.3901,-133.14177 -1024.7708,-132.96383 -1025.2187,-132.96383 C -1025.439,-132.96383 -1025.6562,-133.01891 -1025.8705,-133.12906 C -1026.0847,-133.23921 -1026.2693,-133.40201 -1026.4243,-133.61747 L -1026.4243,-133.05098 L -1027.372,-133.05098 z M -1026.3589,-135.06272 C -1026.3589,-134.66328 -1026.2959,-134.36793 -1026.1701,-134.17669 C -1025.9933,-133.90555 -1025.7585,-133.76998 -1025.4656,-133.76998 C -1025.2405,-133.76998 -1025.0486,-133.86621 -1024.89,-134.05867 C -1024.7315,-134.25113 -1024.6522,-134.55434 -1024.6522,-134.96831 C -1024.6522,-135.4089 -1024.7321,-135.72664 -1024.8918,-135.92153 C -1025.0516,-136.1164 -1025.2562,-136.21384 -1025.5055,-136.21385 C -1025.75,-136.21384 -1025.9534,-136.11882 -1026.1156,-135.92879 C -1026.2778,-135.73875 -1026.3589,-135.45006 -1026.3589,-135.06272 L -1026.3589,-135.06272 z"
         id="text3245"
         style="font-size:12px;font-style:normal;font-weight:normal;line-height:125%;fill:#000000;fill-opacity:1;stroke:none;stroke-width:1px;stroke-linecap:butt;stroke-linejoin:miter;stroke-opacity:1;font-family:Bitstream Vera Sans" />
      <path
         d="M -1016.542,-120.27365 L -1023.0874,-119.55173 C -1023.2479,-120.89929 -1023.665,-121.89394 -1024.3387,-122.53568 C -1025.0126,-123.17736 -1025.8869,-123.49821 -1026.9617,-123.49824 C -1028.3895,-123.49821 -1029.5968,-122.8565 -1030.5834,-121.57311 C -1031.57,-120.28967 -1032.1917,-117.61855 -1032.4484,-113.55976 C -1030.7639,-115.54904 -1028.6703,-116.54369 -1026.1676,-116.54371 C -1023.3441,-116.54369 -1020.9257,-115.46882 -1018.9123,-113.31912 C -1016.8989,-111.16937 -1015.8923,-108.39398 -1015.8922,-104.99293 C -1015.8923,-101.3833 -1016.9511,-98.487587 -1019.0687,-96.305777 C -1021.1864,-94.123967 -1023.9056,-93.033057 -1027.2264,-93.033057 C -1030.7879,-93.033057 -1033.7157,-94.416747 -1036.0098,-97.184117 C -1038.304,-99.951487 -1039.451,-104.48757 -1039.451,-110.79238 C -1039.451,-117.25759 -1038.2558,-121.918 -1035.8655,-124.77364 C -1033.4751,-127.62922 -1030.3708,-129.05702 -1026.5526,-129.05706 C -1023.8735,-129.05702 -1021.6556,-128.30702 -1019.8989,-126.80706 C -1018.1423,-125.30703 -1017.0233,-123.12923 -1016.542,-120.27365 L -1016.542,-120.27365 z M -1031.8708,-105.52234 C -1031.8708,-103.32447 -1031.3655,-101.62796 -1030.3548,-100.43278 C -1029.3441,-99.237587 -1028.189,-98.639997 -1026.8895,-98.639997 C -1025.6382,-98.639997 -1024.5954,-99.129297 -1023.7612,-100.10791 C -1022.927,-101.08651 -1022.5099,-102.69079 -1022.5099,-104.92074 C -1022.5099,-107.21484 -1022.9591,-108.89531 -1023.8575,-109.96217 C -1024.7559,-111.029 -1025.8789,-111.56242 -1027.2264,-111.56244 C -1028.5259,-111.56242 -1029.6248,-111.05306 -1030.5232,-110.03436 C -1031.4216,-109.01563 -1031.8708,-107.51163 -1031.8708,-105.52234 L -1031.8708,-105.52234 z"
         id="text3249"
         style="font-size:14.78499889px;font-style:normal;font-weight:normal;line-height:125%;fill:#000000;fill-opacity:1;stroke:none;stroke-width:1px;stroke-linecap:butt;stroke-linejoin:miter;stroke-opacity:1;font-family:Bitstream Vera Sans" />
      <path
         d="M -1048.4663,-85.547327 L -1047.8998,-85.547327 L -1047.8998,-85.837837 C -1047.8998,-86.162227 -1047.8653,-86.404317 -1047.7963,-86.564097 C -1047.7273,-86.723867 -1047.6002,-86.853987 -1047.415,-86.954457 C -1047.2298,-87.054927 -1046.9956,-87.105157 -1046.7124,-87.105157 C -1046.4219,-87.105157 -1046.1374,-87.061577 -1045.859,-86.974437 L -1045.997,-86.262697 C -1046.1592,-86.301427 -1046.3153,-86.320797 -1046.4654,-86.320797 C -1046.6131,-86.320797 -1046.719,-86.286297 -1046.7832,-86.217307 C -1046.8473,-86.148307 -1046.8794,-86.015767 -1046.8794,-85.819677 L -1046.8794,-85.547327 L -1046.1168,-85.547327 L -1046.1168,-84.744807 L -1046.8794,-84.744807 L -1046.8794,-81.690877 L -1047.8998,-81.690877 L -1047.8998,-84.744807 L -1048.4663,-84.744807 L -1048.4663,-85.547327 z M -1044.559,-81.690877 L -1045.5794,-81.690877 L -1045.5794,-85.547327 L -1044.6316,-85.547327 L -1044.6316,-84.998997 C -1044.4694,-85.258027 -1044.3236,-85.428697 -1044.194,-85.511017 C -1044.0645,-85.593317 -1043.9175,-85.634477 -1043.7528,-85.634477 C -1043.5204,-85.634477 -1043.2965,-85.570317 -1043.0811,-85.442017 L -1043.397,-84.552347 C -1043.5689,-84.663707 -1043.7286,-84.719387 -1043.8763,-84.719387 C -1044.0191,-84.719387 -1044.1402,-84.680047 -1044.2394,-84.601367 C -1044.3387,-84.522687 -1044.4168,-84.380467 -1044.4737,-84.174687 C -1044.5306,-83.968917 -1044.559,-83.537997 -1044.559,-82.881947 L -1044.559,-81.690877 z M -1040.412,-82.918257 L -1039.3953,-82.747577 C -1039.526,-82.374767 -1039.7324,-82.090917 -1040.0144,-81.896037 C -1040.2965,-81.701157 -1040.6493,-81.603727 -1041.0729,-81.603727 C -1041.7435,-81.603727 -1042.2398,-81.822807 -1042.5618,-82.260987 C -1042.816,-82.612007 -1042.9431,-83.055027 -1042.9431,-83.590047 C -1042.9431,-84.229147 -1042.776,-84.729667 -1042.4419,-85.091587 C -1042.1079,-85.453497 -1041.6854,-85.634457 -1041.1746,-85.634467 C -1040.6009,-85.634457 -1040.1482,-85.445027 -1039.8165,-85.066167 C -1039.4849,-84.687297 -1039.3263,-84.106897 -1039.3408,-83.324957 L -1041.8972,-83.324957 C -1041.89,-83.022347 -1041.8077,-82.786917 -1041.6503,-82.618667 C -1041.493,-82.450417 -1041.2969,-82.366297 -1041.0621,-82.366297 C -1040.9023,-82.366297 -1040.7679,-82.409867 -1040.659,-82.497017 C -1040.55,-82.584167 -1040.4677,-82.724577 -1040.412,-82.918257 L -1040.412,-82.918257 z M -1040.3539,-83.949537 C -1040.3612,-84.244887 -1040.4375,-84.469417 -1040.5827,-84.623147 C -1040.728,-84.776867 -1040.9047,-84.853727 -1041.1129,-84.853737 C -1041.3356,-84.853727 -1041.5196,-84.772637 -1041.6648,-84.610437 C -1041.8101,-84.448237 -1041.8815,-84.227937 -1041.8791,-83.949537 L -1040.3539,-83.949537 z M -1038.5056,-86.070217 L -1038.5056,-87.014357 L -1037.4852,-87.014357 L -1037.4852,-86.070217 L -1038.5056,-86.070217 z M -1038.5056,-81.690877 L -1038.5056,-85.547317 L -1037.4852,-85.547317 L -1037.4852,-81.690877 L -1038.5056,-81.690877 z M -1036.5375,-81.436687 L -1035.3718,-81.295057 C -1035.3524,-81.159497 -1035.3077,-81.066287 -1035.2374,-81.015447 C -1035.1406,-80.942827 -1034.9881,-80.906517 -1034.7799,-80.906517 C -1034.5136,-80.906517 -1034.3139,-80.946457 -1034.1807,-81.026347 C -1034.0912,-81.079607 -1034.0234,-81.165547 -1033.9774,-81.284167 C -1033.9459,-81.368897 -1033.9302,-81.525047 -1033.9302,-81.752607 L -1033.9302,-82.315457 C -1034.2352,-81.899067 -1034.6201,-81.690877 -1035.0849,-81.690877 C -1035.603,-81.690877 -1036.0133,-81.909957 -1036.3159,-82.348137 C -1036.5532,-82.694317 -1036.6718,-83.125237 -1036.6718,-83.640877 C -1036.6718,-84.287247 -1036.5163,-84.781107 -1036.2052,-85.122447 C -1035.8941,-85.463787 -1035.5074,-85.634457 -1035.045,-85.634467 C -1034.5681,-85.634457 -1034.1747,-85.425057 -1033.8648,-85.006247 L -1033.8648,-85.547317 L -1032.9098,-85.547317 L -1032.9098,-82.086687 C -1032.9098,-81.631567 -1032.9473,-81.291427 -1033.0224,-81.066287 C -1033.0974,-80.841147 -1033.2027,-80.664427 -1033.3383,-80.536117 C -1033.4738,-80.407817 -1033.6548,-80.307347 -1033.8812,-80.234727 C -1034.1075,-80.162097 -1034.3938,-80.125787 -1034.74,-80.125787 C -1035.3936,-80.125787 -1035.8572,-80.237747 -1036.1307,-80.461677 C -1036.4043,-80.685607 -1036.5411,-80.969457 -1036.5411,-81.313217 C -1036.5411,-81.347107 -1036.5399,-81.388267 -1036.5375,-81.436687 L -1036.5375,-81.436687 z M -1035.626,-83.698977 C -1035.626,-83.289857 -1035.5467,-82.990267 -1035.3881,-82.800237 C -1035.2296,-82.610197 -1035.0341,-82.515177 -1034.8017,-82.515177 C -1034.5523,-82.515177 -1034.3417,-82.612617 -1034.1698,-82.807497 C -1033.998,-83.002377 -1033.912,-83.291067 -1033.912,-83.673567 C -1033.912,-84.073007 -1033.9943,-84.369557 -1034.159,-84.563227 C -1034.3236,-84.756897 -1034.5318,-84.853727 -1034.7835,-84.853737 C -1035.028,-84.853727 -1035.2296,-84.758717 -1035.3881,-84.568677 C -1035.5467,-84.378637 -1035.626,-84.088737 -1035.626,-83.698977 L -1035.626,-83.698977 z M -1029.6634,-82.918257 L -1028.6466,-82.747577 C -1028.7774,-82.374767 -1028.9837,-82.090917 -1029.2658,-81.896037 C -1029.5478,-81.701157 -1029.9007,-81.603727 -1030.3243,-81.603727 C -1030.9949,-81.603727 -1031.4912,-81.822807 -1031.8131,-82.260987 C -1032.0673,-82.612007 -1032.1944,-83.055027 -1032.1944,-83.590047 C -1032.1944,-84.229147 -1032.0274,-84.729667 -1031.6933,-85.091587 C -1031.3592,-85.453497 -1030.9368,-85.634457 -1030.426,-85.634467 C -1029.8522,-85.634457 -1029.3995,-85.445027 -1029.0679,-85.066167 C -1028.7362,-84.687297 -1028.5776,-84.106897 -1028.5922,-83.324957 L -1031.1486,-83.324957 C -1031.1413,-83.022347 -1031.059,-82.786917 -1030.9017,-82.618667 C -1030.7443,-82.450417 -1030.5482,-82.366297 -1030.3134,-82.366297 C -1030.1536,-82.366297 -1030.0193,-82.409867 -1029.9103,-82.497017 C -1029.8014,-82.584167 -1029.7191,-82.724577 -1029.6634,-82.918257 L -1029.6634,-82.918257 z M -1029.6053,-83.949537 C -1029.6126,-84.244887 -1029.6888,-84.469417 -1029.8341,-84.623147 C -1029.9793,-84.776867 -1030.1561,-84.853727 -1030.3642,-84.853737 C -1030.587,-84.853727 -1030.771,-84.772637 -1030.9162,-84.610437 C -1031.0615,-84.448237 -1031.1329,-84.227937 -1031.1304,-83.949537 L -1029.6053,-83.949537 z M -1027.8514,-81.436687 L -1026.6857,-81.295057 C -1026.6664,-81.159497 -1026.6216,-81.066287 -1026.5514,-81.015447 C -1026.4545,-80.942827 -1026.302,-80.906517 -1026.0938,-80.906517 C -1025.8275,-80.906517 -1025.6278,-80.946457 -1025.4947,-81.026347 C -1025.4051,-81.079607 -1025.3373,-81.165547 -1025.2913,-81.284167 C -1025.2599,-81.368897 -1025.2441,-81.525047 -1025.2441,-81.752607 L -1025.2441,-82.315457 C -1025.5491,-81.899067 -1025.9341,-81.690877 -1026.3989,-81.690877 C -1026.9169,-81.690877 -1027.3273,-81.909957 -1027.6299,-82.348137 C -1027.8671,-82.694317 -1027.9857,-83.125237 -1027.9857,-83.640877 C -1027.9857,-84.287247 -1027.8302,-84.781107 -1027.5191,-85.122447 C -1027.208,-85.463787 -1026.8213,-85.634457 -1026.3589,-85.634467 C -1025.882,-85.634457 -1025.4886,-85.425057 -1025.1787,-85.006247 L -1025.1787,-85.547317 L -1024.2237,-85.547317 L -1024.2237,-82.086687 C -1024.2237,-81.631567 -1024.2612,-81.291427 -1024.3363,-81.066287 C -1024.4113,-80.841147 -1024.5166,-80.664427 -1024.6522,-80.536117 C -1024.7878,-80.407817 -1024.9687,-80.307347 -1025.1951,-80.234727 C -1025.4214,-80.162097 -1025.7077,-80.125787 -1026.0539,-80.125787 C -1026.7075,-80.125787 -1027.1711,-80.237747 -1027.4447,-80.461677 C -1027.7182,-80.685607 -1027.855,-80.969457 -1027.855,-81.313217 C -1027.855,-81.347107 -1027.8538,-81.388267 -1027.8514,-81.436687 L -1027.8514,-81.436687 z M -1026.9399,-83.698977 C -1026.9399,-83.289857 -1026.8606,-82.990267 -1026.7021,-82.800237 C -1026.5435,-82.610197 -1026.348,-82.515177 -1026.1156,-82.515177 C -1025.8663,-82.515177 -1025.6557,-82.612617 -1025.4838,-82.807497 C -1025.3119,-83.002377 -1025.226,-83.291067 -1025.226,-83.673567 C -1025.226,-84.073007 -1025.3083,-84.369557 -1025.4729,-84.563227 C -1025.6375,-84.756897 -1025.8457,-84.853727 -1026.0975,-84.853737 C -1026.342,-84.853727 -1026.5435,-84.758717 -1026.7021,-84.568677 C -1026.8606,-84.378637 -1026.9399,-84.088737 -1026.9399,-83.698977 L -1026.9399,-83.698977 z M -1020.9773,-82.918257 L -1019.9606,-82.747577 C -1020.0913,-82.374767 -1020.2977,-82.090917 -1020.5797,-81.896037 C -1020.8617,-81.701157 -1021.2146,-81.603727 -1021.6382,-81.603727 C -1022.3088,-81.603727 -1022.8051,-81.822807 -1023.1271,-82.260987 C -1023.3813,-82.612007 -1023.5084,-83.055027 -1023.5084,-83.590047 C -1023.5084,-84.229147 -1023.3413,-84.729667 -1023.0072,-85.091587 C -1022.6732,-85.453497 -1022.2507,-85.634457 -1021.7399,-85.634467 C -1021.1662,-85.634457 -1020.7135,-85.445027 -1020.3818,-85.066167 C -1020.0501,-84.687297 -1019.8916,-84.106897 -1019.9061,-83.324957 L -1022.4625,-83.324957 C -1022.4553,-83.022347 -1022.373,-82.786917 -1022.2156,-82.618667 C -1022.0583,-82.450417 -1021.8622,-82.366297 -1021.6273,-82.366297 C -1021.4676,-82.366297 -1021.3332,-82.409867 -1021.2243,-82.497017 C -1021.1153,-82.584167 -1021.033,-82.724577 -1020.9773,-82.918257 L -1020.9773,-82.918257 z M -1020.9192,-83.949537 C -1020.9265,-84.244887 -1021.0028,-84.469417 -1021.148,-84.623147 C -1021.2933,-84.776867 -1021.47,-84.853727 -1021.6782,-84.853737 C -1021.9009,-84.853727 -1022.0849,-84.772637 -1022.2301,-84.610437 C -1022.3754,-84.448237 -1022.4468,-84.227937 -1022.4444,-83.949537 L -1020.9192,-83.949537 z M -1019.1145,-81.690877 L -1019.1145,-87.014357 L -1018.0941,-87.014357 L -1018.0941,-85.097027 C -1017.7794,-85.455317 -1017.4066,-85.634457 -1016.9756,-85.634467 C -1016.506,-85.634457 -1016.1175,-85.464397 -1015.81,-85.124267 C -1015.5026,-84.784127 -1015.3488,-84.295727 -1015.3488,-83.659037 C -1015.3488,-83.000557 -1015.5056,-82.493387 -1015.8191,-82.137527 C -1016.1326,-81.781657 -1016.5133,-81.603727 -1016.9611,-81.603727 C -1017.1814,-81.603727 -1017.3987,-81.658797 -1017.6129,-81.768947 C -1017.8272,-81.879097 -1018.0118,-82.041897 -1018.1667,-82.257357 L -1018.1667,-81.690877 L -1019.1145,-81.690877 z M -1018.1013,-83.702617 C -1018.1013,-83.303167 -1018.0384,-83.007827 -1017.9125,-82.816577 C -1017.7358,-82.545437 -1017.501,-82.409867 -1017.208,-82.409867 C -1016.9829,-82.409867 -1016.7911,-82.506097 -1016.6325,-82.698557 C -1016.4739,-82.891017 -1016.3946,-83.194227 -1016.3946,-83.608197 C -1016.3946,-84.048797 -1016.4745,-84.366537 -1016.6343,-84.561417 C -1016.7941,-84.756287 -1016.9986,-84.853727 -1017.248,-84.853737 C -1017.4925,-84.853727 -1017.6959,-84.758717 -1017.858,-84.568677 C -1018.0202,-84.378637 -1018.1013,-84.089947 -1018.1013,-83.702617 L -1018.1013,-83.702617 z M -1012.2913,-82.918257 L -1011.2745,-82.747587 C -1011.4052,-82.374767 -1011.6116,-82.090927 -1011.8936,-81.896047 C -1012.1757,-81.701157 -1012.5285,-81.603717 -1012.9522,-81.603717 C -1013.6227,-81.603717 -1014.119,-81.822807 -1014.441,-82.260987 C -1014.6952,-82.612017 -1014.8223,-83.055037 -1014.8223,-83.590047 C -1014.8223,-84.229157 -1014.6552,-84.729677 -1014.3212,-85.091597 C -1013.9871,-85.453517 -1013.5646,-85.634477 -1013.0538,-85.634477 C -1012.4801,-85.634477 -1012.0274,-85.445037 -1011.6957,-85.066177 C -1011.3641,-84.687307 -1011.2055,-84.106907 -1011.22,-83.324967 L -1013.7765,-83.324967 C -1013.7692,-83.022357 -1013.6869,-82.786927 -1013.5295,-82.618677 C -1013.3722,-82.450427 -1013.1761,-82.366297 -1012.9413,-82.366297 C -1012.7815,-82.366297 -1012.6471,-82.409877 -1012.5382,-82.497027 C -1012.4293,-82.584177 -1012.3469,-82.724587 -1012.2913,-82.918257 L -1012.2913,-82.918257 z M -1012.2332,-83.949547 C -1012.2404,-84.244897 -1012.3167,-84.469427 -1012.4619,-84.623157 C -1012.6072,-84.776877 -1012.7839,-84.853747 -1012.9921,-84.853747 C -1013.2148,-84.853747 -1013.3988,-84.772647 -1013.5441,-84.610447 C -1013.6893,-84.448247 -1013.7607,-84.227947 -1013.7583,-83.949547 L -1012.2332,-83.949547 z M -1006.877,-81.690877 L -1007.8974,-81.690877 L -1007.8974,-83.659047 C -1007.8974,-84.075437 -1007.9192,-84.344757 -1007.9627,-84.467007 C -1008.0063,-84.589267 -1008.0771,-84.684287 -1008.1752,-84.752067 C -1008.2732,-84.819847 -1008.3912,-84.853747 -1008.5292,-84.853747 C -1008.7059,-84.853747 -1008.8645,-84.805327 -1009.0049,-84.708497 C -1009.1453,-84.611657 -1009.2416,-84.483347 -1009.2936,-84.323577 C -1009.3457,-84.163797 -1009.3717,-83.868447 -1009.3717,-83.437537 L -1009.3717,-81.690877 L -1010.3921,-81.690877 L -1010.3921,-85.547327 L -1009.4443,-85.547327 L -1009.4443,-84.980847 C -1009.1078,-85.416597 -1008.6842,-85.634477 -1008.1733,-85.634477 C -1007.9482,-85.634477 -1007.7424,-85.593927 -1007.556,-85.512827 C -1007.3696,-85.431727 -1007.2286,-85.328237 -1007.133,-85.202357 C -1007.0374,-85.076467 -1006.9708,-84.933637 -1006.9333,-84.773857 C -1006.8957,-84.614077 -1006.877,-84.385307 -1006.877,-84.087537 L -1006.877,-81.690877 z"
         id="text3253"
         style="font-size:14.8738575px;font-style:normal;font-weight:normal;line-height:125%;fill:#000000;fill-opacity:1;stroke:none;stroke-width:1px;stroke-linecap:butt;stroke-linejoin:miter;stroke-opacity:1;font-family:Bitstream Vera Sans" />
    </g>
  </g>
</svg>
