<?xml version="1.0" encoding="UTF-8" standalone="no"?>
<!-- Created with Inkscape (http://www.inkscape.org/) -->
<svg
   xmlns:svg="http://www.w3.org/2000/svg"
   xmlns="http://www.w3.org/2000/svg"
   version="1.0"
   width="158.03149"
   height="158.03149"
   id="svg2">
  <defs
     id="defs4" />
  <g
     transform="translate(1218.442,208.93703)"
     id="layer1">
    <g
       transform="translate(-27.695315,1.6811913)"
       id="g4398">
      <rect
         width="120.41093"
         height="120.41093"
         rx="10.629922"
         ry="10.629921"
         x="-1171.9364"
         y="-191.80794"
         id="rect3315"
         style="fill:#ff0000;fill-opacity:0.7;stroke:#ff0000;stroke-width:2.1875;stroke-linecap:butt;stroke-linejoin:miter;stroke-miterlimit:4;stroke-dasharray:none;stroke-opacity:1" />
      <rect
         width="77.257874"
         height="77.257874"
         rx="6.8203545"
         ry="6.820354"
         x="-917.79828"
         y="654.4267"
         transform="matrix(0.7071068,0.7071068,-0.7071068,0.7071068,0,0)"
         id="rect3317"
         style="fill:#ff0000;fill-opacity:0.21367523;stroke:#000000;stroke-width:1.25;stroke-linecap:butt;stroke-linejoin:miter;stroke-miterlimit:4;stroke-dasharray:none;stroke-opacity:1" />
      <path
         d="M -1125.6244,-168.82932 L -1123.6548,-168.82932 L -1123.6548,-163.5461 C -1123.6548,-162.7077 -1123.6304,-162.16429 -1123.5816,-161.91588 C -1123.4973,-161.51664 -1123.2966,-161.19615 -1122.9794,-160.95439 C -1122.6623,-160.71263 -1122.2286,-160.59175 -1121.6786,-160.59175 C -1121.1197,-160.59175 -1120.6982,-160.70597 -1120.4143,-160.93443 C -1120.1304,-161.16288 -1119.9597,-161.44345 -1119.902,-161.77615 C -1119.8443,-162.10884 -1119.8155,-162.66112 -1119.8155,-163.43298 L -1119.8155,-168.82932 L -1117.8459,-168.82932 L -1117.8459,-163.70579 C -1117.8459,-162.5347 -1117.8992,-161.70739 -1118.0056,-161.22387 C -1118.1121,-160.74035 -1118.3084,-160.33225 -1118.5945,-159.99955 C -1118.8806,-159.66685 -1119.2632,-159.4018 -1119.7423,-159.20441 C -1120.2214,-159.00701 -1120.8468,-158.90831 -1121.6187,-158.90831 C -1122.5503,-158.90831 -1123.2567,-159.01588 -1123.738,-159.23102 C -1124.2193,-159.44616 -1124.5997,-159.72563 -1124.8791,-160.06942 C -1125.1586,-160.4132 -1125.3427,-160.77362 -1125.4314,-161.15068 C -1125.56,-161.70961 -1125.6244,-162.5347 -1125.6244,-163.62594 L -1125.6244,-168.82932 z M -1116.2623,-162.24858 L -1114.3459,-162.43489 C -1114.2306,-161.79167 -1113.9966,-161.31924 -1113.644,-161.0176 C -1113.2913,-160.71596 -1112.8155,-160.56513 -1112.2167,-160.56513 C -1111.5824,-160.56513 -1111.1044,-160.69932 -1110.7828,-160.9677 C -1110.4612,-161.23607 -1110.3004,-161.54991 -1110.3004,-161.90923 C -1110.3004,-162.1399 -1110.368,-162.33619 -1110.5033,-162.4981 C -1110.6386,-162.66001 -1110.8748,-162.80085 -1111.2119,-162.92063 C -1111.4426,-163.00047 -1111.9683,-163.14242 -1112.7889,-163.34648 C -1113.8447,-163.6082 -1114.5855,-163.9298 -1115.0113,-164.3113 C -1115.6102,-164.84804 -1115.9096,-165.50235 -1115.9096,-166.27421 C -1115.9096,-166.77103 -1115.7688,-167.2357 -1115.4871,-167.66821 C -1115.2054,-168.10071 -1114.7995,-168.43008 -1114.2694,-168.65632 C -1113.7393,-168.88254 -1113.0994,-168.99566 -1112.3498,-168.99567 C -1111.1254,-168.99566 -1110.2039,-168.72728 -1109.5851,-168.19054 C -1108.9662,-167.65378 -1108.6413,-166.93738 -1108.6103,-166.04132 L -1110.5798,-165.95482 C -1110.6641,-166.45608 -1110.8449,-166.8165 -1111.1221,-167.03609 C -1111.3994,-167.25566 -1111.8152,-167.36545 -1112.3697,-167.36546 C -1112.942,-167.36545 -1113.39,-167.24789 -1113.7138,-167.0128 C -1113.9223,-166.86197 -1114.0266,-166.66013 -1114.0266,-166.40729 C -1114.0266,-166.17661 -1113.929,-165.97921 -1113.7338,-165.81509 C -1113.4854,-165.60659 -1112.8821,-165.38923 -1111.9239,-165.163 C -1110.9658,-164.93676 -1110.2571,-164.70277 -1109.798,-164.46101 C -1109.3389,-164.21925 -1108.9796,-163.88877 -1108.72,-163.46958 C -1108.4606,-163.05038 -1108.3308,-162.53248 -1108.3308,-161.91588 C -1108.3308,-161.35695 -1108.4861,-160.83351 -1108.7966,-160.34555 C -1109.1071,-159.8576 -1109.5463,-159.49496 -1110.114,-159.25764 C -1110.6819,-159.02031 -1111.3894,-158.90165 -1112.2367,-158.90165 C -1113.4698,-158.90165 -1114.4169,-159.18666 -1115.0779,-159.75668 C -1115.7388,-160.3267 -1116.1336,-161.15733 -1116.2623,-162.24858 L -1116.2623,-162.24858 z M -1106.634,-159.07465 L -1106.634,-168.82932 L -1104.6645,-168.82932 L -1104.6645,-164.49761 L -1100.6854,-168.82932 L -1098.0372,-168.82932 L -1101.7101,-165.02992 L -1097.8375,-159.07465 L -1100.386,-159.07465 L -1103.0675,-163.65256 L -1104.6645,-162.02235 L -1104.6645,-159.07465 L -1106.634,-159.07465 z"
         id="text3321"
         style="font-size:14.86609936px;font-style:normal;font-weight:normal;line-height:125%;fill:#000000;fill-opacity:1;stroke:none;stroke-width:1px;stroke-linecap:butt;stroke-linejoin:miter;stroke-opacity:1;font-family:Bitstream Vera Sans" />
      <path
         d="M -1115.5632,-153.11667 L -1116.7328,-153.32766 C -1116.6013,-153.79857 -1116.375,-154.14716 -1116.0539,-154.37345 C -1115.7329,-154.59972 -1115.2559,-154.71286 -1114.6229,-154.71287 C -1114.048,-154.71286 -1113.6199,-154.64482 -1113.3386,-154.50876 C -1113.0573,-154.37268 -1112.8593,-154.19991 -1112.7446,-153.99045 C -1112.6299,-153.78098 -1112.5726,-153.39646 -1112.5726,-152.83688 L -1112.5864,-151.33242 C -1112.5864,-150.90432 -1112.5657,-150.5886 -1112.5244,-150.38525 C -1112.4832,-150.1819 -1112.4059,-149.96403 -1112.2928,-149.73164 L -1113.5679,-149.73164 C -1113.6016,-149.81726 -1113.6428,-149.94416 -1113.6918,-150.11234 C -1113.7132,-150.18878 -1113.7285,-150.23924 -1113.7376,-150.2637 C -1113.9578,-150.04965 -1114.1933,-149.88911 -1114.444,-149.78209 C -1114.6947,-149.67507 -1114.9623,-149.62155 -1115.2467,-149.62155 C -1115.7482,-149.62155 -1116.1434,-149.75763 -1116.4324,-150.02978 C -1116.7213,-150.30192 -1116.8658,-150.64593 -1116.8658,-151.0618 C -1116.8658,-151.337 -1116.8001,-151.5824 -1116.6686,-151.79798 C -1116.5371,-152.01355 -1116.3529,-152.17867 -1116.1159,-152.29335 C -1115.8789,-152.40801 -1115.5372,-152.50816 -1115.0907,-152.59378 C -1114.4883,-152.70692 -1114.0709,-152.81241 -1113.8385,-152.91027 L -1113.8385,-153.0387 C -1113.8385,-153.28638 -1113.8997,-153.46297 -1114.022,-153.56847 C -1114.1443,-153.67396 -1114.3752,-153.72671 -1114.7146,-153.72671 C -1114.944,-153.72671 -1115.1228,-153.6816 -1115.2513,-153.5914 C -1115.3797,-153.50119 -1115.4837,-153.34295 -1115.5632,-153.11667 L -1115.5632,-153.11667 z M -1113.8385,-152.07089 C -1114.0037,-152.01584 -1114.2651,-151.9501 -1114.6229,-151.87366 C -1114.9806,-151.79721 -1115.2146,-151.72229 -1115.3247,-151.64891 C -1115.4928,-151.52965 -1115.5769,-151.37828 -1115.5769,-151.19482 C -1115.5769,-151.0144 -1115.5097,-150.85845 -1115.3751,-150.72696 C -1115.2406,-150.59548 -1115.0693,-150.52973 -1114.8614,-150.52973 C -1114.629,-150.52973 -1114.4073,-150.60618 -1114.1963,-150.75907 C -1114.0404,-150.87527 -1113.9379,-151.01746 -1113.889,-151.18564 C -1113.8554,-151.29572 -1113.8385,-151.50518 -1113.8385,-151.81403 L -1113.8385,-152.07089 z M -1111.3525,-149.73164 L -1111.3525,-156.45584 L -1110.0636,-156.45584 L -1110.0636,-154.03402 C -1109.6661,-154.48658 -1109.1952,-154.71286 -1108.6509,-154.71287 C -1108.0577,-154.71286 -1107.5669,-154.49805 -1107.1785,-154.06843 C -1106.7902,-153.63879 -1106.596,-153.02187 -1106.596,-152.21766 C -1106.596,-151.38593 -1106.794,-150.74531 -1107.19,-150.29581 C -1107.586,-149.8463 -1108.0669,-149.62155 -1108.6326,-149.62155 C -1108.9108,-149.62155 -1109.1853,-149.69112 -1109.4559,-149.83025 C -1109.7265,-149.96938 -1109.9597,-150.17502 -1110.1554,-150.44717 L -1110.1554,-149.73164 L -1111.3525,-149.73164 z M -1110.0728,-152.27271 C -1110.0728,-151.76816 -1109.9933,-151.3951 -1109.8343,-151.15353 C -1109.6111,-150.81105 -1109.3145,-150.63982 -1108.9445,-150.63982 C -1108.6601,-150.63982 -1108.4177,-150.76136 -1108.2175,-151.00446 C -1108.0172,-151.24756 -1107.917,-151.63056 -1107.917,-152.15345 C -1107.917,-152.70997 -1108.0179,-153.11132 -1108.2197,-153.35748 C -1108.4216,-153.60363 -1108.68,-153.72671 -1108.9949,-153.72671 C -1109.3038,-153.72671 -1109.5606,-153.60669 -1109.7655,-153.36665 C -1109.9704,-153.12661 -1110.0728,-152.76196 -1110.0728,-152.27271 L -1110.0728,-152.27271 z"
         id="text3325"
         style="font-size:15.15744877px;font-style:normal;font-weight:normal;line-height:125%;fill:#000000;fill-opacity:1;stroke:none;stroke-width:1px;stroke-linecap:butt;stroke-linejoin:miter;stroke-opacity:1;font-family:Bitstream Vera Sans" />
      <path
         d="M -1120.5986,-107.43128 L -1127.3606,-107.43128 L -1127.3606,-132.91519 C -1129.8312,-130.60501 -1132.7429,-128.89646 -1136.0959,-127.78953 L -1136.0959,-133.92588 C -1134.3312,-134.5034 -1132.4141,-135.59831 -1130.3445,-137.21064 C -1128.275,-138.8229 -1126.8553,-140.70391 -1126.0852,-142.85367 L -1120.5986,-142.85367 L -1120.5986,-107.43128 z M -1104.6681,-126.46601 C -1106.4168,-127.20395 -1107.6882,-128.21865 -1108.4823,-129.51012 C -1109.2764,-130.80153 -1109.6735,-132.21731 -1109.6735,-133.75744 C -1109.6735,-136.38842 -1108.755,-138.56221 -1106.9181,-140.27881 C -1105.0812,-141.99535 -1102.4703,-142.85364 -1099.0852,-142.85367 C -1095.7323,-142.85364 -1093.1294,-141.99535 -1091.2764,-140.27881 C -1089.4235,-138.56221 -1088.497,-136.38842 -1088.497,-133.75744 C -1088.497,-132.12105 -1088.9222,-130.66517 -1089.7724,-129.3898 C -1090.6227,-128.11438 -1091.8179,-127.13978 -1093.358,-126.46601 C -1091.4008,-125.67989 -1089.9128,-124.53284 -1088.8941,-123.02484 C -1087.8754,-121.5168 -1087.366,-119.77617 -1087.366,-117.80292 C -1087.366,-114.54623 -1088.4048,-111.89918 -1090.4823,-109.86176 C -1092.5599,-107.82433 -1095.3232,-106.80562 -1098.7724,-106.80561 C -1101.981,-106.80562 -1104.6521,-107.64786 -1106.7858,-109.33235 C -1109.3045,-111.32164 -1110.5638,-114.04891 -1110.5638,-117.51415 C -1110.5638,-119.42323 -1110.0906,-121.17589 -1109.144,-122.77216 C -1108.1975,-124.3684 -1106.7055,-125.59968 -1104.6681,-126.46601 L -1104.6681,-126.46601 z M -1103.2724,-133.27615 C -1103.2724,-131.92854 -1102.8914,-130.87774 -1102.1293,-130.12375 C -1101.3673,-129.36972 -1100.3526,-128.99272 -1099.0852,-128.99274 C -1097.8018,-128.99272 -1096.7751,-129.37373 -1096.005,-130.13578 C -1095.235,-130.89779 -1094.85,-131.9526 -1094.8499,-133.30022 C -1094.85,-134.56757 -1095.231,-135.58227 -1095.993,-136.34433 C -1096.755,-137.10633 -1097.7617,-137.48734 -1099.013,-137.48737 C -1100.3125,-137.48734 -1101.3473,-137.10232 -1102.1173,-136.3323 C -1102.8874,-135.56222 -1103.2724,-134.5435 -1103.2724,-133.27615 L -1103.2724,-133.27615 z M -1103.8981,-118.16388 C -1103.8981,-116.30291 -1103.4208,-114.85105 -1102.4662,-113.80828 C -1101.5117,-112.76549 -1100.3205,-112.2441 -1098.8927,-112.24411 C -1097.497,-112.2441 -1096.3419,-112.74544 -1095.4275,-113.74811 C -1094.5131,-114.75078 -1094.0559,-116.19864 -1094.0558,-118.09169 C -1094.0559,-119.74408 -1094.5211,-121.07162 -1095.4516,-122.0743 C -1096.382,-123.07696 -1097.5612,-123.57829 -1098.989,-123.57831 C -1100.6414,-123.57829 -1101.8727,-123.00878 -1102.6828,-121.86976 C -1103.493,-120.73071 -1103.8981,-119.49542 -1103.8981,-118.16388 L -1103.8981,-118.16388 z"
         id="text3329"
         style="font-size:14.78499889px;font-style:normal;font-weight:normal;line-height:125%;fill:#000000;fill-opacity:1;stroke:none;stroke-width:1px;stroke-linecap:butt;stroke-linejoin:miter;stroke-opacity:1;font-family:Bitstream Vera Sans" />
    </g>
  </g>
</svg>
